<svg xmlns="http://www.w3.org/2000/svg" xmlns:xlink="http://www.w3.org/1999/xlink" width="80.644" height="13.871"><defs><path id="a" d="M0 0h80.644v13.871H0z"/></defs><clipPath id="b"><use xlink:href="#a" overflow="visible"/></clipPath><path clip-path="url(#b)" fill="#FFCA05" d="M17.866 1.979h4.15c2.088 0 3.17 1.186 3.17 2.871 0 .888-.33 1.743-1.578 2.301v.029c1.172.272 1.744 1.385 1.744 2.466 0 1.85-1.369 3.037-2.976 3.037h-4.51V1.979zm1.623 1.443V6.49h2.346c1.172 0 1.728-.693 1.728-1.533 0-.829-.556-1.534-1.728-1.534h-2.346zm0 4.511v3.217h2.494c1.205 0 1.744-.766 1.744-1.608 0-.842-.539-1.608-1.744-1.608h-2.494zm8.571 1.518c0 1.247.766 1.879 1.819 1.879.585 0 1.216-.271 1.667-.736l1.114.947c-.752.871-1.731 1.232-2.752 1.232-1.565 0-3.383-.753-3.383-3.878 0-2.963 1.668-3.924 3.143-3.924 1.683 0 3.14 1.247 3.14 3.216v1.264H28.06zm3.214-1.263c-.045-1.157-.705-1.773-1.607-1.773-.903 0-1.579.616-1.608 1.773h3.215zm4.301 1.263c0 1.247.766 1.879 1.819 1.879.585 0 1.216-.271 1.668-.736l1.113.947c-.752.871-1.729 1.232-2.752 1.232-1.563 0-3.381-.753-3.381-3.878 0-2.963 1.668-3.924 3.143-3.924 1.683 0 3.14 1.247 3.14 3.216v1.264h-4.75zm3.217-1.263c-.045-1.157-.707-1.773-1.607-1.773-.905 0-1.581.616-1.61 1.773h3.217zm3.381-4.374a3.806 3.806 0 013.355-1.926c1.682 0 2.84.993 3.35 1.926.349.63.467.947.467 3.518 0 2.569-.118 2.886-.467 3.517a3.798 3.798 0 01-3.35 1.925 3.803 3.803 0 01-3.355-1.925c-.344-.631-.465-.947-.465-3.517 0-2.571.121-2.888.465-3.518m1.699 6.553c.332.421.889.782 1.656.782.766 0 1.323-.361 1.652-.782.421-.542.541-.841.541-3.035s-.12-2.495-.541-3.038a2.056 2.056 0 00-1.652-.781c-.768 0-1.324.36-1.656.781-.42.543-.541.844-.541 3.038s.121 2.493.541 3.035m7.231-5.305h1.533v.812h.03c.481-.603 1.173-.902 1.985-.902 1.188 0 2.541.916 2.541 2.646v5.065h-1.533V8.145c0-1.04-.646-1.641-1.504-1.641-.871 0-1.52.601-1.52 1.641v4.538h-1.533V5.062zm8.072-3.083h1.535v8.734c0 .346.195.525.57.525h.527v1.443h-.677c-1.113 0-1.955-.481-1.955-1.85V1.979zm3.926 0h1.533v1.533h-1.533V1.979zm0 3.082h1.533v7.621h-1.533V5.061zm3.56.001h1.535v.812h.027c.482-.603 1.174-.902 1.986-.902 1.188 0 2.541.916 2.541 2.646v5.065h-1.533V8.145c0-1.04-.645-1.641-1.504-1.641-.871 0-1.518.601-1.518 1.641v4.538H66.66V5.062zm9.233 4.389c0 1.247.764 1.879 1.818 1.879.586 0 1.217-.271 1.669-.736l1.112.947c-.752.871-1.729 1.232-2.75 1.232-1.564 0-3.385-.753-3.385-3.878 0-2.963 1.67-3.924 3.145-3.924 1.68 0 3.141 1.247 3.141 3.216v1.264h-4.75zm3.216-1.263c-.047-1.157-.707-1.773-1.607-1.773-.904 0-1.581.616-1.609 1.773h3.216zM7.768 5.761a2.966 2.966 0 00.008-3.015c-.293-.482-.459-.686-2.197-1.689C3.845.055 3.583.013 3.022 0A2.962 2.962 0 00.415 1.515a2.97 2.97 0 00-.008 3.016c.291.478.459.683 2.195 1.687C4.339 7.22 4.599 7.262 5.161 7.273a2.965 2.965 0 002.607-1.512m-6.373-2.19a1.607 1.607 0 01.116-1.423 1.61 1.61 0 011.173-.813c.532-.074.78-.037 2.262.819 1.485.857 1.641 1.054 1.842 1.55.156.388.182.905-.117 1.422-.299.519-.76.754-1.174.813-.529.074-.779.038-2.262-.818-1.482-.857-1.64-1.056-1.84-1.55M12.813 8.29c-1.004-1.737-1.209-1.903-1.687-2.195a2.97 2.97 0 00-3.016.007 2.972 2.972 0 00-1.515 2.609c.013.561.054.82 1.058 2.559 1.002 1.735 1.207 1.902 1.686 2.194.709.43 1.879.648 3.017-.008a2.968 2.968 0 001.514-2.609c-.014-.561-.055-.82-1.057-2.557m-.279 2.895c-.06.414-.293.875-.812 1.174a1.608 1.608 0 01-1.422.117c-.496-.202-.696-.357-1.551-1.842-.856-1.482-.891-1.732-.818-2.261.06-.415.294-.874.812-1.173a1.598 1.598 0 011.422-.116c.496.2.695.356 1.549 1.839.857 1.483.894 1.732.82 2.262m-6.58-1.611c-.572.572-1.236.572-1.732.075-.498-.499-.498-1.161.074-1.734l.336-.333c-.285-.058-.621-.19-1.199-.496l-.032.034c-1.086 1.086-.896 2.504-.025 3.375s2.289 1.062 3.375-.024l.033-.033c-.305-.579-.437-.915-.494-1.199l-.336.335zm2.125-7.013c.191.316.342.716.412 1.16l.08-.079c.572-.573 1.237-.573 1.733-.075.498.497.498 1.161-.075 1.733l-.078.079a3.25 3.25 0 011.158.413c.02.011.036.022.053.033a2.31 2.31 0 00.502-1.305.772.772 0 10-.221-1.101 2.457 2.457 0 00-.494-.699 2.46 2.46 0 00-.697-.494.77.77 0 00-.447-1.4.774.774 0 00-.774.772c0 .15.045.289.119.407-.441.024-.89.181-1.304.503.012.017.021.034.033.053"/></svg>