<svg xmlns="http://www.w3.org/2000/svg" xmlns:xlink="http://www.w3.org/1999/xlink" width="250.5" height="83"><path fill="#EEAC20" d="M24.532 31.731c-.167.983-.455 1.837-.863 2.563a6.287 6.287 0 01-1.5 1.813 5.938 5.938 0 01-2 1.075 7.922 7.922 0 01-2.387.35c-1.05 0-1.975-.17-2.775-.512a6.893 6.893 0 01-2.175-1.488c-.467-.466-.825-.971-1.075-1.512s-.43-1.113-.538-1.713c-.109-.6-.167-1.221-.175-1.862a157.381 157.381 0 010-3.924c.008-.641.066-1.263.175-1.863.108-.6.288-1.17.538-1.712s.608-1.046 1.075-1.513a6.873 6.873 0 012.175-1.487c.8-.341 1.725-.513 2.775-.513.85 0 1.646.117 2.387.35a5.973 5.973 0 012 1.075 6.274 6.274 0 011.5 1.813c.408.726.696 1.579.863 2.563h-4.45a3.283 3.283 0 00-.7-1.325c-.334-.383-.859-.575-1.575-.575-.4 0-.746.071-1.038.212s-.521.321-.688.538c-.1.133-.192.283-.275.45s-.154.409-.212.725c-.059.317-.104.729-.138 1.237-.034.509-.05 1.171-.05 1.988s.016 1.479.05 1.987c.033.509.079.921.138 1.238.058.316.129.559.212.725.083.167.175.317.275.45.167.217.396.396.688.538s.638.212 1.038.212c.716 0 1.241-.191 1.575-.575a3.29 3.29 0 00.7-1.325h4.45v-.003zm3.75 5.65v-3.4l6.825-10.5h-6.525v-3.9h11.775v3.4l-6.85 10.5h6.85v3.9H28.282zm17.125 0v-17.8h12.1v3.9h-7.725v2.975h6.6v3.9h-6.6v3.125h7.725v3.9h-12.1zm30.625-5.65c-.167.983-.454 1.837-.862 2.563a6.333 6.333 0 01-1.5 1.813 5.965 5.965 0 01-2 1.075 7.929 7.929 0 01-2.388.35c-1.05 0-1.975-.17-2.775-.512a6.893 6.893 0 01-2.175-1.488c-.467-.466-.825-.971-1.075-1.512s-.429-1.113-.538-1.713c-.108-.6-.167-1.221-.175-1.862a140.096 140.096 0 010-3.924c.008-.642.066-1.263.175-1.863.109-.6.288-1.17.538-1.712s.608-1.046 1.075-1.513a6.873 6.873 0 012.175-1.487c.8-.341 1.725-.513 2.775-.513.85 0 1.646.117 2.388.35a5.983 5.983 0 012 1.075 6.306 6.306 0 011.5 1.813c.408.725.696 1.579.862 2.563h-4.45a3.296 3.296 0 00-.7-1.325c-.333-.383-.858-.575-1.575-.575-.4 0-.746.071-1.038.212a1.89 1.89 0 00-.688.538 2.88 2.88 0 00-.275.45c-.084.167-.154.409-.213.725-.059.317-.104.729-.137 1.237-.034.509-.05 1.171-.05 1.988s.017 1.479.05 1.987c.033.509.079.921.137 1.238.058.317.129.559.213.725.083.167.175.317.275.45.167.217.396.396.688.538s.637.212 1.038.212c.716 0 1.241-.191 1.575-.575a3.29 3.29 0 00.7-1.325h4.45v-.003zm13.825 5.65v-7.05h-4.65v7.05h-4.375v-17.8h4.375v6.85h4.65v-6.85h4.375v17.8h-4.375z"/><defs><path id="a" d="M0 0h250.5v83H0z"/></defs><clipPath id="b"><use xlink:href="#a" overflow="visible"/></clipPath><path clip-path="url(#b)" fill="#EEAC20" d="M155.295 63.502V44.891H143.02v18.611h-11.551V16.509h11.551v18.084h12.275V16.509h11.551v46.993h-11.551zm48.773 0l-8.316-17.49h-3.895v17.49h-11.549V16.509h18.61c2.597 0 4.896.429 6.897 1.287 2 .858 3.672 1.991 5.016 3.399a14.547 14.547 0 013.068 4.851 15.416 15.416 0 011.057 5.577c0 1.584-.23 3.036-.691 4.356-.463 1.32-1.058 2.498-1.783 3.531a12.877 12.877 0 01-2.441 2.64 13.805 13.805 0 01-2.738 1.748l10.163 19.604h-13.398zm-.66-31.944c0-1.231-.44-2.332-1.32-3.3-.881-.967-2.111-1.452-3.695-1.452h-6.533v9.504h6.533c1.584 0 2.814-.484 3.695-1.452.88-.968 1.32-2.068 1.32-3.3z"/><path fill="#EEAC20" d="M22.557 57.83c0 .898-.184 1.699-.55 2.398a5.241 5.241 0 01-1.488 1.764 6.549 6.549 0 01-2.188 1.074 9.463 9.463 0 01-2.65.363 16.25 16.25 0 01-1.962-.113 9.672 9.672 0 01-1.775-.375 6.974 6.974 0 01-3.013-1.861l2.8-2.801c.467.468 1.066.791 1.8.976a8.856 8.856 0 002.175.274c1.7 0 2.55-.532 2.55-1.6 0-.434-.117-.783-.35-1.051-.234-.232-.625-.393-1.175-.475l-2.15-.301c-1.583-.232-2.775-.758-3.575-1.574-.817-.816-1.225-2.01-1.225-3.575 0-.815.15-1.565.45-2.25s.729-1.274 1.288-1.774c.558-.5 1.238-.893 2.038-1.176.8-.283 1.708-.425 2.725-.425 1.3 0 2.433.162 3.4.487.966.324 1.833.871 2.6 1.638l-2.75 2.75c-.417-.417-.871-.696-1.363-.838s-.929-.212-1.313-.212h-.7c-.384 0-.708.05-.975.148a2.063 2.063 0 00-.663.389 1.536 1.536 0 00-.387.524c-.084.19-.125.388-.125.587 0 .117.025.25.075.4.05.148.142.292.275.425.117.117.271.226.463.325.191.1.445.167.762.199l2.15.301c1.566.232 2.733.725 3.5 1.475a3.885 3.885 0 011.025 1.663c.201.645.301 1.39.301 2.241zm18.575-.801c0 .984-.179 1.867-.538 2.65a6.12 6.12 0 01-1.462 2.012 6.437 6.437 0 01-2.163 1.287 7.562 7.562 0 01-2.612.451 7.43 7.43 0 01-2.613-.451 6.513 6.513 0 01-2.137-1.287 5.963 5.963 0 01-1.45-2.012c-.35-.783-.525-1.666-.525-2.65v-11.55h4.375V56.93c0 .85.204 1.495.612 1.938.408.441.988.662 1.738.662s1.337-.221 1.762-.662c.425-.441.638-1.088.638-1.938V45.479h4.375v11.55zm18.025 6.25v-8.524l-2.525 4.399h-2.8l-2.525-4.399v8.524h-4.375v-17.8h4.3l4 7.852 4-7.852h4.3V63.28h-4.375zm22.7 0v-8.524l-2.525 4.399h-2.8l-2.525-4.399v8.524h-4.375v-17.8h4.3l4 7.852 4-7.852h4.3V63.28h-4.375zm10.476 0v-17.8h4.375V63.28h-4.375zm18.174-13.899v13.899h-4.375V49.38h-4.375v-3.9h13.125v3.899h-4.375z"/><defs><path id="c" d="M0 0h250.5v83H0z"/></defs><clipPath id="d"><use xlink:href="#c" overflow="visible"/></clipPath><path clip-path="url(#d)" fill="none" stroke="#EEAC20" stroke-width="2" stroke-miterlimit="10" d="M1 1h248.5v81H1z"/><use xlink:href="#c" overflow="visible" fill="none" stroke="#EEAC20"/><defs><path id="e" d="M0 0h250.5v83H0z"/></defs><clipPath id="f"><use xlink:href="#e" overflow="visible"/></clipPath><path clip-path="url(#f)" fill="none" stroke="#EEAC20" stroke-width="2" stroke-miterlimit="10" d="M.982 75.417H249.5"/><use xlink:href="#e" overflow="visible" fill="none" stroke="#EEAC20"/><defs><path id="g" d="M0 0h250.5v83H0z"/></defs><clipPath id="h"><use xlink:href="#g" overflow="visible"/></clipPath><path clip-path="url(#h)" fill="none" stroke="#EEAC20" stroke-width="2" stroke-miterlimit="10" d="M225.547 75.5v7"/><use xlink:href="#g" overflow="visible" fill="none" stroke="#EEAC20"/><defs><path id="i" d="M0 0h250.5v83H0z"/></defs><clipPath id="j"><use xlink:href="#i" overflow="visible"/></clipPath><path clip-path="url(#j)" fill="none" stroke="#EEAC20" stroke-width="2" stroke-miterlimit="10" d="M229.547 75.5v7"/><use xlink:href="#i" overflow="visible" fill="none" stroke="#EEAC20"/><defs><path id="k" d="M0 0h250.5v83H0z"/></defs><clipPath id="l"><use xlink:href="#k" overflow="visible"/></clipPath><path clip-path="url(#l)" fill="none" stroke="#EEAC20" stroke-width="2" stroke-miterlimit="10" d="M233.547 75.5v7"/><use xlink:href="#k" overflow="visible" fill="none" stroke="#EEAC20"/><defs><path id="m" d="M0 0h250.5v83H0z"/></defs><clipPath id="n"><use xlink:href="#m" overflow="visible"/></clipPath><path clip-path="url(#n)" fill="none" stroke="#EEAC20" stroke-width="2" stroke-miterlimit="10" d="M237.547 75.5v7"/><use xlink:href="#m" overflow="visible" fill="none" stroke="#EEAC20"/><defs><path id="o" d="M0 0h250.5v83H0z"/></defs><clipPath id="p"><use xlink:href="#o" overflow="visible"/></clipPath><path clip-path="url(#p)" fill="#EEAC20" stroke="#EEAC20" d="M232.932 13.335a3.272 3.272 0 00.008-3.318c-.321-.529-.506-.754-2.416-1.857s-2.197-1.149-2.814-1.162a3.26 3.26 0 00-2.869 1.666 3.27 3.27 0 00-.009 3.317c.319.527.505.753 2.416 1.857 1.91 1.102 2.196 1.149 2.815 1.162a3.264 3.264 0 002.869-1.665m-7.014-2.41a1.763 1.763 0 01.127-1.564 1.774 1.774 0 011.291-.894c.585-.082.857-.041 2.489.901 1.633.942 1.805 1.16 2.026 1.705.172.426.198.995-.129 1.565-.33.57-.836.83-1.293.895-.582.08-.857.04-2.488-.902s-1.804-1.161-2.023-1.706m12.562 5.194c-1.104-1.912-1.33-2.095-1.855-2.415a3.26 3.26 0 00-3.318.007 3.272 3.272 0 00-1.668 2.871c.016.617.062.903 1.166 2.815 1.103 1.91 1.327 2.094 1.854 2.415a3.269 3.269 0 003.32-.01 3.256 3.256 0 001.664-2.87c-.014-.617-.059-.902-1.163-2.813m-.306 3.185a1.762 1.762 0 01-.895 1.291c-.568.329-1.139.3-1.564.129-.545-.222-.764-.393-1.706-2.026-.94-1.631-.979-1.905-.899-2.489.065-.455.324-.961.895-1.291s1.139-.299 1.564-.126c.545.219.766.391 1.705 2.023.941 1.633.982 1.906.9 2.489m-7.24-1.772c-.629.63-1.359.63-1.906.082-.547-.549-.547-1.277.082-1.909l.369-.367c-.313-.063-.684-.208-1.318-.544l-.034.037c-1.194 1.194-.985 2.754-.028 3.713.959.958 2.521 1.168 3.715-.027l.035-.037c-.334-.635-.479-1.004-.543-1.317l-.372.369zm2.337-7.718c.211.349.377.788.453 1.277l.09-.087c.629-.631 1.358-.631 1.904-.083.549.547.549 1.278-.082 1.908l-.086.087c.488.078.928.242 1.275.454l.058.035c.354-.456.526-.949.552-1.435a.85.85 0 10-.242-1.212 2.64 2.64 0 00-.543-.768 2.721 2.721 0 00-.769-.545.848.848 0 00-.494-1.541.852.852 0 00-.851.85c0 .165.05.319.131.449a2.557 2.557 0 00-1.437.553c.019.019.029.038.041.058"/><use xlink:href="#o" overflow="visible" fill="none" stroke="#EEAC20"/></svg>