<?xml version="1.0" encoding="utf-8"?>
<!-- Generator: Adobe Illustrator 13.0.0, SVG Export Plug-In . SVG Version: 6.00 Build 14948)  -->
<!DOCTYPE svg PUBLIC "-//W3C//DTD SVG 1.1//EN" "http://www.w3.org/Graphics/SVG/1.1/DTD/svg11.dtd">
<svg version="1.1" id="Layer_1" xmlns="http://www.w3.org/2000/svg" xmlns:xlink="http://www.w3.org/1999/xlink" x="0px" y="0px"
	 width="80.644px" height="13.871px" viewBox="0 0 80.644 13.871" enable-background="new 0 0 80.644 13.871" xml:space="preserve">
<g>
	<defs>
		<rect id="SVGID_1_" width="80.644" height="13.871"/>
	</defs>
	<clipPath id="SVGID_2_">
		<use xlink:href="#SVGID_1_"  overflow="visible"/>
	</clipPath>
	<path clip-path="url(#SVGID_2_)" fill="#FFCA05" d="M17.866,1.979h4.15c2.088,0,3.17,1.186,3.17,2.871
		c0,0.888-0.33,1.743-1.578,2.301V7.18c1.172,0.272,1.744,1.385,1.744,2.466c0,1.85-1.369,3.037-2.976,3.037h-4.51V1.979z
		 M19.489,3.422V6.49h2.346c1.172,0,1.728-0.693,1.728-1.533c0-0.829-0.556-1.534-1.728-1.534H19.489z M19.489,7.933v3.217h2.494
		c1.205,0,1.744-0.766,1.744-1.608c0-0.842-0.539-1.608-1.744-1.608H19.489z"/>
	<path clip-path="url(#SVGID_2_)" fill="#FFCA05" d="M28.06,9.451c0,1.247,0.766,1.879,1.819,1.879c0.585,0,1.216-0.271,1.667-0.736
		l1.114,0.947c-0.752,0.871-1.731,1.232-2.752,1.232c-1.565,0-3.383-0.753-3.383-3.878c0-2.963,1.668-3.924,3.143-3.924
		c1.683,0,3.14,1.247,3.14,3.216v1.264H28.06z M31.274,8.188c-0.045-1.157-0.705-1.773-1.607-1.773
		c-0.903,0-1.579,0.616-1.608,1.773H31.274z"/>
	<path clip-path="url(#SVGID_2_)" fill="#FFCA05" d="M35.575,9.451c0,1.247,0.766,1.879,1.819,1.879
		c0.585,0,1.216-0.271,1.668-0.736l1.113,0.947c-0.752,0.871-1.729,1.232-2.752,1.232c-1.563,0-3.381-0.753-3.381-3.878
		c0-2.963,1.668-3.924,3.143-3.924c1.683,0,3.14,1.247,3.14,3.216v1.264H35.575z M38.792,8.188
		c-0.045-1.157-0.707-1.773-1.607-1.773c-0.905,0-1.581,0.616-1.61,1.773H38.792z"/>
	<path clip-path="url(#SVGID_2_)" fill="#FFCA05" d="M42.173,3.814c0.512-0.933,1.67-1.926,3.355-1.926
		c1.682,0,2.84,0.993,3.35,1.926c0.349,0.63,0.467,0.947,0.467,3.518c0,2.569-0.118,2.886-0.467,3.517
		c-0.51,0.933-1.668,1.925-3.35,1.925c-1.686,0-2.844-0.992-3.355-1.925c-0.344-0.631-0.465-0.947-0.465-3.517
		C41.708,4.761,41.829,4.444,42.173,3.814 M43.872,10.367c0.332,0.421,0.889,0.782,1.656,0.782c0.766,0,1.323-0.361,1.652-0.782
		c0.421-0.542,0.541-0.841,0.541-3.035c0-2.194-0.12-2.495-0.541-3.038c-0.329-0.421-0.887-0.781-1.652-0.781
		c-0.768,0-1.324,0.36-1.656,0.781c-0.42,0.543-0.541,0.844-0.541,3.038C43.331,9.526,43.452,9.825,43.872,10.367"/>
	<path clip-path="url(#SVGID_2_)" fill="#FFCA05" d="M51.103,5.062h1.533v0.812h0.03c0.481-0.603,1.173-0.902,1.985-0.902
		c1.188,0,2.541,0.916,2.541,2.646v5.065h-1.533V8.145c0-1.04-0.646-1.641-1.504-1.641c-0.871,0-1.52,0.601-1.52,1.641v4.538h-1.533
		V5.062z"/>
	<path clip-path="url(#SVGID_2_)" fill="#FFCA05" d="M59.175,1.979h1.535v8.734c0,0.346,0.195,0.525,0.57,0.525h0.527v1.443H61.13
		c-1.113,0-1.955-0.481-1.955-1.85V1.979z"/>
	<path clip-path="url(#SVGID_2_)" fill="#FFCA05" d="M63.101,1.979h1.533v1.533h-1.533V1.979z M63.101,5.061h1.533v7.621h-1.533
		V5.061z"/>
	<path clip-path="url(#SVGID_2_)" fill="#FFCA05" d="M66.661,5.062h1.535v0.812h0.027c0.482-0.603,1.174-0.902,1.986-0.902
		c1.188,0,2.541,0.916,2.541,2.646v5.065h-1.533V8.145c0-1.04-0.645-1.641-1.504-1.641c-0.871,0-1.518,0.601-1.518,1.641v4.538
		h-1.535V5.062z"/>
	<path clip-path="url(#SVGID_2_)" fill="#FFCA05" d="M75.894,9.451c0,1.247,0.764,1.879,1.818,1.879
		c0.586,0,1.217-0.271,1.669-0.736l1.112,0.947c-0.752,0.871-1.729,1.232-2.75,1.232c-1.564,0-3.385-0.753-3.385-3.878
		c0-2.963,1.67-3.924,3.145-3.924c1.68,0,3.141,1.247,3.141,3.216v1.264H75.894z M79.11,8.188c-0.047-1.157-0.707-1.773-1.607-1.773
		c-0.904,0-1.581,0.616-1.609,1.773H79.11z"/>
	<path clip-path="url(#SVGID_2_)" fill="#FFCA05" d="M7.768,5.761c0.657-1.137,0.438-2.306,0.008-3.015
		C7.483,2.264,7.317,2.06,5.579,1.057C3.845,0.055,3.583,0.013,3.022,0C2.194-0.018,1.071,0.375,0.415,1.515
		c-0.656,1.139-0.438,2.307-0.008,3.016c0.291,0.478,0.459,0.683,2.195,1.687C4.339,7.22,4.599,7.262,5.161,7.273
		C5.989,7.292,7.11,6.898,7.768,5.761 M1.395,3.571C1.239,3.183,1.212,2.666,1.511,2.148c0.3-0.518,0.759-0.753,1.173-0.813
		c0.532-0.074,0.78-0.037,2.262,0.819c1.485,0.857,1.641,1.054,1.842,1.55C6.944,4.092,6.97,4.609,6.671,5.126
		C6.372,5.645,5.911,5.88,5.497,5.939C4.968,6.013,4.718,5.977,3.235,5.121C1.753,4.264,1.595,4.065,1.395,3.571 M12.813,8.29
		c-1.004-1.737-1.209-1.903-1.687-2.195C10.417,5.664,9.247,5.447,8.11,6.102C6.974,6.76,6.577,7.879,6.595,8.711
		c0.013,0.561,0.054,0.82,1.058,2.559c1.002,1.735,1.207,1.902,1.686,2.194c0.709,0.43,1.879,0.648,3.017-0.008
		c1.137-0.656,1.532-1.779,1.514-2.609C13.856,10.286,13.815,10.027,12.813,8.29 M12.534,11.185
		c-0.06,0.414-0.293,0.875-0.812,1.174c-0.518,0.299-1.036,0.272-1.422,0.117c-0.496-0.202-0.696-0.357-1.551-1.842
		C7.893,9.152,7.858,8.902,7.931,8.373C7.991,7.958,8.225,7.499,8.743,7.2c0.518-0.3,1.035-0.273,1.422-0.116
		c0.496,0.2,0.695,0.356,1.549,1.839C12.571,10.406,12.608,10.655,12.534,11.185 M5.954,9.574c-0.572,0.572-1.236,0.572-1.732,0.075
		C3.724,9.15,3.724,8.488,4.296,7.915l0.336-0.333c-0.285-0.058-0.621-0.19-1.199-0.496L3.401,7.12
		c-1.086,1.086-0.896,2.504-0.025,3.375c0.871,0.871,2.289,1.062,3.375-0.024l0.033-0.033C6.479,9.859,6.347,9.523,6.29,9.239
		L5.954,9.574z M8.079,2.561c0.191,0.316,0.342,0.716,0.412,1.16l0.08-0.079c0.572-0.573,1.237-0.573,1.733-0.075
		c0.498,0.497,0.498,1.161-0.075,1.733l-0.078,0.079c0.444,0.072,0.842,0.221,1.158,0.413c0.02,0.011,0.036,0.022,0.053,0.033
		c0.322-0.415,0.479-0.864,0.502-1.305c0.119,0.074,0.258,0.118,0.408,0.118c0.428,0,0.774-0.345,0.774-0.771
		c0-0.427-0.346-0.773-0.774-0.773c-0.257,0-0.488,0.127-0.629,0.325c-0.119-0.255-0.287-0.493-0.494-0.699
		c-0.205-0.206-0.441-0.374-0.697-0.494c0.195-0.141,0.324-0.369,0.324-0.628c0-0.427-0.343-0.772-0.771-0.772
		c-0.426,0-0.774,0.345-0.774,0.772c0,0.15,0.045,0.289,0.119,0.407C8.909,2.029,8.46,2.186,8.046,2.508
		C8.058,2.525,8.067,2.542,8.079,2.561"/>
</g>
</svg>
