<?xml version="1.0" encoding="utf-8"?>
<!-- Generator: Adobe Illustrator 13.0.0, SVG Export Plug-In . SVG Version: 6.00 Build 14948)  -->
<!DOCTYPE svg PUBLIC "-//W3C//DTD SVG 1.1//EN" "http://www.w3.org/Graphics/SVG/1.1/DTD/svg11.dtd">
<svg version="1.1" id="Layer_1" xmlns="http://www.w3.org/2000/svg" xmlns:xlink="http://www.w3.org/1999/xlink" x="0px" y="0px"
	 width="250.5px" height="83px" viewBox="0 0 250.5 83" enable-background="new 0 0 250.5 83" xml:space="preserve">
<path d="M24.532,31.731c-0.167,0.983-0.455,1.837-0.863,2.563s-0.908,1.329-1.5,1.813s-1.258,0.842-2,1.075
	c-0.742,0.233-1.537,0.35-2.387,0.35c-1.05,0-1.975-0.17-2.775-0.512c-0.8-0.342-1.525-0.838-2.175-1.488
	c-0.467-0.466-0.825-0.971-1.075-1.512s-0.43-1.113-0.538-1.713c-0.109-0.6-0.167-1.221-0.175-1.862s-0.012-1.296-0.012-1.962
	s0.004-1.321,0.012-1.962s0.066-1.263,0.175-1.863c0.108-0.6,0.288-1.17,0.538-1.712c0.25-0.542,0.608-1.046,1.075-1.513
	c0.65-0.65,1.375-1.146,2.175-1.487c0.8-0.341,1.725-0.513,2.775-0.513c0.85,0,1.646,0.117,2.387,0.35
	c0.742,0.234,1.408,0.592,2,1.075s1.092,1.087,1.5,1.813s0.696,1.579,0.863,2.563h-4.45c-0.133-0.5-0.367-0.941-0.7-1.325
	c-0.334-0.383-0.859-0.575-1.575-0.575c-0.4,0-0.746,0.071-1.038,0.212s-0.521,0.321-0.688,0.538c-0.1,0.133-0.192,0.283-0.275,0.45
	c-0.083,0.167-0.154,0.409-0.212,0.725c-0.059,0.317-0.104,0.729-0.138,1.237c-0.034,0.509-0.05,1.171-0.05,1.988
	c0,0.817,0.016,1.479,0.05,1.987c0.033,0.509,0.079,0.921,0.138,1.238c0.058,0.316,0.129,0.559,0.212,0.725
	c0.083,0.167,0.175,0.317,0.275,0.45c0.167,0.217,0.396,0.396,0.688,0.538s0.638,0.212,1.038,0.212c0.716,0,1.241-0.191,1.575-0.575
	c0.333-0.383,0.566-0.825,0.7-1.325H24.532z M28.282,37.381v-3.4l6.825-10.5h-6.525v-3.9h11.775v3.4l-6.85,10.5h6.85v3.9H28.282z
	 M45.407,37.381v-17.8h12.1v3.9h-7.725v2.975h6.6v3.9h-6.6v3.125h7.725v3.9H45.407z M76.032,31.731
	c-0.167,0.983-0.454,1.837-0.862,2.563c-0.409,0.725-0.909,1.329-1.5,1.813c-0.592,0.483-1.259,0.842-2,1.075
	c-0.742,0.233-1.538,0.35-2.388,0.35c-1.05,0-1.975-0.17-2.775-0.512c-0.8-0.342-1.525-0.838-2.175-1.488
	c-0.467-0.466-0.825-0.971-1.075-1.512s-0.429-1.113-0.538-1.713c-0.108-0.6-0.167-1.221-0.175-1.862
	c-0.009-0.642-0.013-1.296-0.013-1.962s0.004-1.321,0.013-1.962c0.008-0.642,0.066-1.263,0.175-1.863s0.288-1.17,0.538-1.712
	c0.25-0.542,0.608-1.046,1.075-1.513c0.65-0.65,1.375-1.146,2.175-1.487c0.8-0.341,1.725-0.513,2.775-0.513
	c0.85,0,1.646,0.117,2.388,0.35c0.741,0.234,1.408,0.592,2,1.075c0.591,0.483,1.091,1.087,1.5,1.813
	c0.408,0.725,0.696,1.579,0.862,2.563h-4.45c-0.134-0.5-0.367-0.941-0.7-1.325c-0.333-0.383-0.858-0.575-1.575-0.575
	c-0.4,0-0.746,0.071-1.038,0.212c-0.292,0.142-0.521,0.321-0.688,0.538c-0.1,0.133-0.192,0.283-0.275,0.45
	c-0.084,0.167-0.154,0.409-0.213,0.725c-0.059,0.317-0.104,0.729-0.137,1.237c-0.034,0.509-0.05,1.171-0.05,1.988
	c0,0.817,0.017,1.479,0.05,1.987c0.033,0.509,0.079,0.921,0.137,1.238s0.129,0.559,0.213,0.725c0.083,0.167,0.175,0.317,0.275,0.45
	c0.167,0.217,0.396,0.396,0.688,0.538c0.292,0.142,0.637,0.212,1.038,0.212c0.716,0,1.241-0.191,1.575-0.575
	c0.333-0.383,0.566-0.825,0.7-1.325H76.032z M89.857,37.381v-7.05h-4.65v7.05h-4.375v-17.8h4.375v6.85h4.65v-6.85h4.375v17.8H89.857
	z"/>
<g>
	<defs>
		<rect id="SVGID_1_" width="250.5" height="83"/>
	</defs>
	<clipPath id="SVGID_2_">
		<use xlink:href="#SVGID_1_"  overflow="visible"/>
	</clipPath>
	<path clip-path="url(#SVGID_2_)" d="M155.295,63.502V44.89h-12.276v18.612h-11.55V16.509h11.55v18.084h12.276V16.509h11.55v46.993
		H155.295z M204.068,63.502l-8.316-17.49h-3.894v17.49h-11.55V16.509h18.611c2.596,0,4.895,0.429,6.897,1.287
		c2.001,0.858,3.673,1.991,5.016,3.399c1.342,1.409,2.365,3.026,3.069,4.851c0.703,1.827,1.056,3.686,1.056,5.577
		c0,1.584-0.23,3.036-0.692,4.356c-0.463,1.32-1.057,2.498-1.782,3.531c-0.727,1.034-1.541,1.914-2.442,2.64
		c-0.902,0.727-1.814,1.31-2.739,1.749l10.164,19.603H204.068z M203.408,31.558c0-1.231-0.44-2.332-1.32-3.3
		c-0.881-0.967-2.111-1.452-3.695-1.452h-6.534v9.504h6.534c1.584,0,2.814-0.484,3.695-1.452
		C202.968,33.89,203.408,32.79,203.408,31.558z"/>
</g>
<path d="M22.557,57.83c0,0.899-0.184,1.7-0.55,2.399c-0.367,0.7-0.863,1.288-1.488,1.763c-0.625,0.476-1.354,0.834-2.188,1.075
	s-1.717,0.362-2.65,0.362c-0.684,0-1.337-0.037-1.962-0.112s-1.217-0.2-1.775-0.375c-0.559-0.175-1.088-0.412-1.588-0.713
	c-0.5-0.3-0.975-0.683-1.425-1.149l2.8-2.8c0.467,0.467,1.066,0.791,1.8,0.975c0.733,0.184,1.458,0.275,2.175,0.275
	c1.7,0,2.55-0.533,2.55-1.601c0-0.433-0.117-0.783-0.35-1.05c-0.234-0.233-0.625-0.392-1.175-0.475l-2.15-0.301
	c-1.583-0.232-2.775-0.758-3.575-1.574c-0.817-0.816-1.225-2.009-1.225-3.575c0-0.816,0.15-1.566,0.45-2.25
	c0.3-0.684,0.729-1.275,1.288-1.775c0.558-0.5,1.238-0.892,2.038-1.175s1.708-0.425,2.725-0.425c1.3,0,2.433,0.162,3.4,0.487
	c0.966,0.325,1.833,0.871,2.6,1.638l-2.75,2.75c-0.417-0.417-0.871-0.696-1.363-0.838s-0.929-0.212-1.313-0.212h-0.7
	c-0.384,0-0.708,0.05-0.975,0.149c-0.267,0.101-0.487,0.229-0.663,0.388c-0.175,0.158-0.304,0.334-0.387,0.525
	c-0.084,0.191-0.125,0.387-0.125,0.587c0,0.117,0.025,0.25,0.075,0.4c0.05,0.149,0.142,0.292,0.275,0.425
	c0.117,0.117,0.271,0.225,0.463,0.325c0.191,0.1,0.445,0.167,0.762,0.2l2.15,0.3c1.566,0.233,2.733,0.725,3.5,1.475
	c0.483,0.467,0.825,1.021,1.025,1.663C22.457,56.234,22.557,56.979,22.557,57.83z M41.132,57.03c0,0.983-0.179,1.866-0.538,2.649
	c-0.358,0.784-0.846,1.454-1.462,2.013c-0.617,0.559-1.337,0.987-2.163,1.287c-0.825,0.301-1.696,0.45-2.612,0.45
	c-0.934,0-1.804-0.149-2.613-0.45c-0.809-0.3-1.521-0.729-2.137-1.287c-0.617-0.559-1.1-1.229-1.45-2.013
	c-0.35-0.783-0.525-1.666-0.525-2.649V45.479h4.375v11.45c0,0.851,0.204,1.496,0.612,1.938c0.408,0.442,0.988,0.663,1.738,0.663
	s1.337-0.221,1.762-0.663c0.425-0.441,0.638-1.087,0.638-1.938v-11.45h4.375V57.03z M59.157,63.28v-8.525l-2.525,4.4h-2.8
	l-2.525-4.4v8.525h-4.375V45.479h4.3l4,7.851l4-7.851h4.3V63.28H59.157z M81.857,63.28v-8.525l-2.525,4.4h-2.8l-2.525-4.4v8.525
	h-4.375V45.479h4.3l4,7.851l4-7.851h4.3V63.28H81.857z M92.333,63.28V45.479h4.375V63.28H92.333z M110.507,49.38v13.9h-4.375v-13.9
	h-4.375v-3.9h13.125v3.9H110.507z"/>
<g>
	<defs>
		<rect id="SVGID_3_" width="250.5" height="83"/>
	</defs>
	<clipPath id="SVGID_4_">
		<use xlink:href="#SVGID_3_"  overflow="visible"/>
	</clipPath>
	
		<rect x="1" y="1" clip-path="url(#SVGID_4_)" fill="none" stroke="#000000" stroke-width="2" stroke-miterlimit="10" width="248.5" height="81"/>
	
		<line clip-path="url(#SVGID_4_)" fill="none" stroke="#000000" stroke-width="2" stroke-miterlimit="10" x1="0.982" y1="75.417" x2="249.5" y2="75.417"/>
	
		<line clip-path="url(#SVGID_4_)" fill="none" stroke="#000000" stroke-width="2" stroke-miterlimit="10" x1="225.547" y1="75.5" x2="225.547" y2="82.5"/>
	
		<line clip-path="url(#SVGID_4_)" fill="none" stroke="#000000" stroke-width="2" stroke-miterlimit="10" x1="229.547" y1="75.5" x2="229.547" y2="82.5"/>
	
		<line clip-path="url(#SVGID_4_)" fill="none" stroke="#000000" stroke-width="2" stroke-miterlimit="10" x1="233.547" y1="75.5" x2="233.547" y2="82.5"/>
	
		<line clip-path="url(#SVGID_4_)" fill="none" stroke="#000000" stroke-width="2" stroke-miterlimit="10" x1="237.547" y1="75.5" x2="237.547" y2="82.5"/>
	<path clip-path="url(#SVGID_4_)" d="M232.931,13.335c0.722-1.251,0.481-2.538,0.009-3.318c-0.322-0.529-0.506-0.754-2.417-1.857
		c-1.909-1.103-2.197-1.149-2.814-1.162c-0.911-0.02-2.147,0.412-2.869,1.666c-0.722,1.253-0.481,2.538-0.009,3.317
		c0.32,0.527,0.505,0.753,2.416,1.857c1.91,1.102,2.196,1.149,2.815,1.162C230.973,15.022,232.206,14.587,232.931,13.335
		 M225.918,10.925c-0.172-0.426-0.202-0.994,0.127-1.564c0.331-0.569,0.836-0.829,1.291-0.894c0.585-0.082,0.857-0.041,2.489,0.901
		c1.633,0.942,1.805,1.16,2.026,1.705c0.172,0.426,0.199,0.995-0.129,1.565c-0.329,0.57-0.836,0.83-1.292,0.895
		c-0.582,0.08-0.857,0.04-2.488-0.902C226.311,11.689,226.137,11.47,225.918,10.925 M238.481,16.119
		c-1.104-1.912-1.33-2.095-1.856-2.415c-0.78-0.476-2.068-0.715-3.318,0.007c-1.251,0.724-1.688,1.957-1.668,2.871
		c0.016,0.617,0.061,0.903,1.165,2.815c1.103,1.91,1.328,2.094,1.854,2.415c0.781,0.473,2.067,0.713,3.32-0.01
		c1.252-0.721,1.686-1.957,1.665-2.87C239.629,18.315,239.584,18.03,238.481,16.119 M238.174,19.304
		c-0.066,0.455-0.322,0.963-0.894,1.291c-0.569,0.329-1.14,0.3-1.565,0.129c-0.545-0.222-0.764-0.393-1.706-2.026
		c-0.94-1.631-0.979-1.905-0.9-2.489c0.066-0.455,0.325-0.961,0.895-1.291s1.139-0.299,1.564-0.126
		c0.546,0.219,0.766,0.391,1.705,2.023C238.215,18.448,238.256,18.721,238.174,19.304 M230.934,17.532
		c-0.63,0.63-1.36,0.63-1.906,0.082c-0.547-0.549-0.547-1.277,0.082-1.909l0.369-0.367c-0.313-0.063-0.684-0.208-1.319-0.544
		l-0.034,0.037c-1.195,1.194-0.986,2.754-0.028,3.713c0.959,0.958,2.52,1.168,3.714-0.027l0.036-0.037
		c-0.335-0.635-0.48-1.004-0.543-1.317L230.934,17.532z M233.272,9.814c0.21,0.349,0.376,0.788,0.453,1.277l0.089-0.087
		c0.629-0.631,1.359-0.631,1.905-0.083c0.548,0.547,0.548,1.278-0.082,1.908l-0.086,0.087c0.488,0.078,0.927,0.242,1.275,0.454
		c0.021,0.012,0.038,0.023,0.058,0.035c0.354-0.456,0.526-0.949,0.552-1.435c0.132,0.082,0.284,0.13,0.449,0.13
		c0.472,0,0.852-0.38,0.852-0.849c0-0.47-0.38-0.85-0.852-0.85c-0.283,0-0.537,0.14-0.691,0.357
		c-0.13-0.281-0.316-0.542-0.544-0.768c-0.226-0.227-0.485-0.412-0.768-0.545c0.215-0.154,0.357-0.405,0.357-0.691
		c0-0.469-0.378-0.85-0.85-0.85c-0.468,0-0.851,0.381-0.851,0.85c0,0.165,0.05,0.319,0.131,0.449
		c-0.485,0.026-0.979,0.199-1.436,0.553C233.249,9.775,233.259,9.794,233.272,9.814"/>
</g>
</svg>
