<?xml version="1.0" encoding="UTF-8" standalone="no"?><!DOCTYPE svg PUBLIC "-//W3C//DTD SVG 1.1//EN" "http://www.w3.org/Graphics/SVG/1.1/DTD/svg11.dtd"><svg width="100%" height="100%" viewBox="0 0 284 83" version="1.1" xmlns="http://www.w3.org/2000/svg" xmlns:xlink="http://www.w3.org/1999/xlink" xml:space="preserve" xmlns:serif="http://www.serif.com/" style="fill-rule:evenodd;clip-rule:evenodd;stroke-miterlimit:10;"><g id="Vrstva-1" serif:id="Vrstva 1"><g><text x="11.691px" y="63.502px" style="font-family:'Montserrat-Bold', 'Montserrat';font-weight:700;font-size:66px;fill:#eeac20;">H</text><text x="67.519px" y="63.502px" style="font-family:'Montserrat-Bold', 'Montserrat';font-weight:700;font-size:66px;fill:#eeac20;">R</text><text x="124.229px" y="63.28px" style="font-family:'Montserrat-Bold', 'Montserrat';font-weight:700;font-size:30px;fill:#eeac20;">M</text><text x="154.529px" y="63.28px" style="font-family:'Montserrat-Bold', 'Montserrat';font-weight:700;font-size:30px;fill:#eeac20;">E<tspan x="177.759px 200.989px " y="63.28px 63.28px ">ET</tspan></text><text x="222.269px" y="63.28px" style="font-family:'Montserrat-Bold', 'Montserrat';font-weight:700;font-size:30px;fill:#eeac20;">U</text><text x="248.009px" y="63.28px" style="font-family:'Montserrat-Bold', 'Montserrat';font-weight:700;font-size:30px;fill:#eeac20;">P</text></g><rect x="1" y="1" width="281.5" height="81" style="fill:none;stroke:#eeac20;stroke-width:2px;"/><path d="M0.982,75.417l281.518,0" style="fill:none;stroke:#eeac20;stroke-width:2px;"/><path d="M258.546,75.5l0,7" style="fill:none;stroke:#eeac20;stroke-width:2px;"/><path d="M262.546,75.5l0,7" style="fill:none;stroke:#eeac20;stroke-width:2px;"/><path d="M266.546,75.5l0,7" style="fill:none;stroke:#eeac20;stroke-width:2px;"/><path d="M270.546,75.5l0,7" style="fill:none;stroke:#eeac20;stroke-width:2px;"/><path d="M261.272,14.814c0.21,0.349 0.376,0.788 0.454,1.277l0.088,-0.087c0.629,-0.631 1.36,-0.631 1.906,-0.083c0.548,0.547 0.548,1.278 -0.082,1.908l-0.086,0.087c0.488,0.078 0.927,0.242 1.275,0.454c0.021,0.012 0.038,0.023 0.058,0.035c0.354,-0.456 0.526,-0.949 0.552,-1.435c0.131,0.082 0.284,0.13 0.449,0.13c0.471,0 0.851,-0.38 0.851,-0.849c0,-0.47 -0.38,-0.85 -0.851,-0.85c-0.283,0 -0.537,0.14 -0.692,0.357c-0.13,-0.281 -0.316,-0.542 -0.544,-0.768c-0.225,-0.227 -0.485,-0.412 -0.767,-0.545c0.215,-0.154 0.357,-0.405 0.357,-0.691c0,-0.469 -0.378,-0.85 -0.849,-0.85c-0.468,0 -0.851,0.381 -0.851,0.85c0,0.165 0.05,0.319 0.131,0.449c-0.485,0.026 -0.98,0.199 -1.436,0.553c0.014,0.019 0.024,0.038 0.037,0.058m-2.338,7.718c-0.63,0.63 -1.361,0.63 -1.907,0.082c-0.547,-0.549 -0.547,-1.277 0.082,-1.909l0.37,-0.367c-0.314,-0.063 -0.684,-0.208 -1.32,-0.544l-0.034,0.037c-1.195,1.194 -0.986,2.754 -0.028,3.713c0.959,0.958 2.519,1.168 3.714,-0.027l0.036,-0.037c-0.335,-0.635 -0.481,-1.004 -0.543,-1.317l-0.37,0.369Zm7.24,1.772c-0.067,0.455 -0.322,0.963 -0.894,1.291c-0.569,0.329 -1.139,0.3 -1.565,0.129c-0.545,-0.222 -0.764,-0.393 -1.706,-2.026c-0.941,-1.631 -0.98,-1.905 -0.901,-2.489c0.067,-0.455 0.326,-0.961 0.895,-1.291c0.569,-0.33 1.139,-0.299 1.564,-0.126c0.546,0.219 0.766,0.391 1.705,2.023c0.943,1.633 0.984,1.906 0.902,2.489m0.307,-3.185c-1.104,-1.912 -1.33,-2.095 -1.856,-2.415c-0.78,-0.476 -2.068,-0.715 -3.318,0.007c-1.251,0.724 -1.688,1.957 -1.668,2.871c0.015,0.617 0.06,0.903 1.165,2.815c1.102,1.91 1.328,2.094 1.854,2.415c0.781,0.473 2.068,0.713 3.321,-0.01c1.251,-0.721 1.685,-1.957 1.665,-2.87c-0.015,-0.617 -0.06,-0.902 -1.163,-2.813m-12.563,-5.194c-0.172,-0.426 -0.202,-0.994 0.127,-1.564c0.331,-0.569 0.836,-0.829 1.291,-0.894c0.585,-0.082 0.857,-0.041 2.489,0.901c1.633,0.942 1.805,1.16 2.027,1.705c0.171,0.426 0.199,0.995 -0.129,1.565c-0.329,0.57 -0.836,0.83 -1.292,0.895c-0.582,0.08 -0.858,0.04 -2.489,-0.902c-1.631,-0.942 -1.805,-1.161 -2.024,-1.706m7.013,2.41c0.721,-1.251 0.481,-2.538 0.008,-3.318c-0.322,-0.529 -0.505,-0.754 -2.417,-1.857c-1.909,-1.103 -2.197,-1.149 -2.814,-1.162c-0.911,-0.02 -2.147,0.412 -2.869,1.666c-0.722,1.253 -0.482,2.538 -0.009,3.317c0.32,0.527 0.505,0.753 2.416,1.857c1.91,1.102 2.196,1.149 2.816,1.162c0.911,0.022 2.144,-0.413 2.869,-1.665" style="fill:#eeac20;fill-rule:nonzero;"/></g></svg>