<?xml version="1.0" encoding="utf-8"?>
<!-- Generator: Adobe Illustrator 13.0.0, SVG Export Plug-In . SVG Version: 6.00 Build 14948)  -->
<!DOCTYPE svg PUBLIC "-//W3C//DTD SVG 1.1//EN" "http://www.w3.org/Graphics/SVG/1.1/DTD/svg11.dtd">
<svg version="1.1" id="Layer_1" xmlns="http://www.w3.org/2000/svg" xmlns:xlink="http://www.w3.org/1999/xlink" x="0px" y="0px"
	 width="159.5px" height="225px" viewBox="0 0 159.5 225" enable-background="new 0 0 159.5 225" xml:space="preserve">
<g>
	<defs>
		<rect id="SVGID_1_" y="0" width="159.5" height="225"/>
	</defs>
	<clipPath id="SVGID_2_">
		<use xlink:href="#SVGID_1_"  overflow="visible"/>
	</clipPath>
	<g clip-path="url(#SVGID_2_)">
		<defs>
			<rect id="SVGID_3_" y="0" width="159.5" height="225"/>
		</defs>
		<clipPath id="SVGID_4_">
			<use xlink:href="#SVGID_3_"  overflow="visible"/>
		</clipPath>
		<g clip-path="url(#SVGID_4_)">
			<g>
				<defs>
					<rect id="SVGID_5_" y="0" width="159.5" height="225"/>
				</defs>
				<clipPath id="SVGID_6_">
					<use xlink:href="#SVGID_5_"  overflow="visible"/>
				</clipPath>
				<g clip-path="url(#SVGID_6_)">
					<path fill="#1D1D1B" d="M0,225V0h159.499v224.5v0.5H0L0,225z M158.998,224.5V224V224.5L158.998,224.5z M0.998,224H158.5
						L158.498,0.998H0.998V224L0.998,224z"/>
				</g>
				<g clip-path="url(#SVGID_6_)">
					<polygon fill="#1D1D1B" points="0.482,28.668 0.482,27.668 159,27.668 159,28.668 0.482,28.668 					"/>
				</g>
				<g clip-path="url(#SVGID_6_)">
					<polygon fill="#1D1D1B" points="0.482,126.417 0.482,125.417 159,125.417 159,126.417 0.482,126.417 					"/>
				</g>
				<g clip-path="url(#SVGID_6_)">
					<polygon fill="#1D1D1B" points="0.482,160.417 0.482,159.418 159,159.418 159,160.417 0.482,160.417 					"/>
				</g>
				<g clip-path="url(#SVGID_6_)">
					<polygon fill="#1D1D1B" points="0.482,203.417 0.482,202.417 158.999,202.417 158.999,203.417 0.482,203.417 					"/>
				</g>
				<g clip-path="url(#SVGID_6_)">
					<polygon fill="#1D1D1B" points="124.25,28.5 124.25,0.5 125.25,0.5 125.25,28.5 124.25,28.5 					"/>
				</g>
				<g clip-path="url(#SVGID_6_)">
					<polygon fill="#1D1D1B" points="134.546,160 134.546,126 135.547,126 135.547,160 134.546,160 					"/>
				</g>
				<g clip-path="url(#SVGID_6_)">
					<polygon fill="#1D1D1B" points="142.547,160 142.547,126 143.548,126 143.548,160 142.547,160 					"/>
				</g>
				<g clip-path="url(#SVGID_6_)">
					<polygon fill="#1D1D1B" points="150.546,160 150.546,126 151.548,126 151.548,160 150.546,160 					"/>
				</g>
				<g clip-path="url(#SVGID_6_)">
					<polygon fill="#1D1D1B" points="86.249,203 86.249,160 87.249,160 87.249,203 86.249,203 					"/>
				</g>
			</g>
		</g>
		<g clip-path="url(#SVGID_4_)">
			<g>
				<defs>
					<rect id="SVGID_7_" x="4.973" y="6.498" width="147.583" height="213.697"/>
				</defs>
				<clipPath id="SVGID_8_">
					<use xlink:href="#SVGID_7_"  overflow="visible"/>
				</clipPath>
				<g clip-path="url(#SVGID_8_)">
					<path fill="#1D1D1B" d="M48.031,98.217V76.449H24.821v21.769H10.575V42.195h14.246v23.049h23.209V42.195h14.246v56.022H48.031z
						"/>
					<path fill="#1D1D1B" d="M103.658,82.451h-0.399H92.454v15.767H78.208V42.195h25.051c14.806,0,23.289,7.042,23.289,19.528
						c0,8.563-3.602,14.726-10.164,18.007l11.765,18.487h-16.167L103.658,82.451z M103.259,71.247c6.162,0,9.764-3.122,9.764-9.044
						c0-5.842-3.602-8.804-9.764-8.804H92.454v17.848H103.259z"/>
				</g>
				<g clip-path="url(#SVGID_8_)">
					<path fill="#1D1D1B" d="M16.187,113.082v-3.314h-4.24v3.314h-1.349v-8h1.349v3.474h4.24v-3.474h1.349v8H16.187z"/>
					<path fill="#1D1D1B" d="M26.443,109.767c0,2.092-1.314,3.372-3.474,3.372c-2.16,0-3.486-1.28-3.486-3.372v-4.686h1.349v4.686
						c0,1.349,0.834,2.16,2.148,2.16c1.303,0,2.114-0.8,2.114-2.16v-4.686h1.349V109.767z"/>
					<path fill="#1D1D1B" d="M35.59,113.082l-0.012-5.977l-2.525,5.143h-0.88l-2.526-5.143v5.977h-1.269v-8h1.6l2.64,5.314
						l2.629-5.314h1.588v8H35.59z"/>
					<path fill="#1D1D1B" d="M40.086,111.276l-0.766,1.806h-1.406l3.532-8h1.383l3.497,8h-1.44l-0.766-1.806H40.086z
						 M42.098,106.521l-1.509,3.554h3.018L42.098,106.521z"/>
					<path fill="#1D1D1B" d="M53.005,113.082l-4.263-5.737v5.737h-1.349v-8h1.326l4.286,5.749v-5.749h1.326v8H53.005z"/>
					<path fill="#1D1D1B" d="M63.01,110.659c-0.114,0.011-0.24,0.011-0.366,0.011h-1.897v2.412h-1.349v-8h3.246
						c2.045,0,3.223,0.994,3.223,2.731c0,1.28-0.594,2.183-1.657,2.594l1.794,2.674h-1.531L63.01,110.659z M62.645,109.458
						c1.234,0,1.943-0.525,1.943-1.611c0-1.051-0.708-1.554-1.943-1.554h-1.897v3.166H62.645z"/>
					<path fill="#1D1D1B" d="M69.014,106.293v2.16h3.909v1.212h-3.909v2.206h4.503v1.211h-5.852v-8h5.714v1.211H69.014z"/>
					<path fill="#1D1D1B" d="M80.595,105.847l-0.56,1.188c-0.868-0.526-1.737-0.743-2.343-0.743c-0.789,0-1.303,0.297-1.303,0.834
						c0,1.749,4.32,0.812,4.309,3.692c0,1.428-1.257,2.309-3.017,2.309c-1.257,0-2.446-0.515-3.269-1.269l0.583-1.166
						c0.823,0.754,1.852,1.166,2.709,1.166c0.937,0,1.497-0.354,1.497-0.972c0-1.783-4.32-0.789-4.32-3.634
						c0-1.372,1.177-2.229,2.915-2.229C78.835,105.024,79.852,105.355,80.595,105.847z"/>
					<path fill="#1D1D1B" d="M90.096,109.082c0,2.286-1.852,4.058-4.24,4.058s-4.24-1.772-4.24-4.058
						c0-2.297,1.852-4.035,4.24-4.035S90.096,106.796,90.096,109.082z M82.986,109.082c0,1.588,1.314,2.846,2.88,2.846
						c1.566,0,2.847-1.257,2.847-2.846c0-1.589-1.28-2.823-2.847-2.823C84.289,106.258,82.986,107.493,82.986,109.082z"/>
					<path fill="#1D1D1B" d="M98.34,109.767c0,2.092-1.314,3.372-3.475,3.372s-3.485-1.28-3.485-3.372v-4.686h1.349v4.686
						c0,1.349,0.834,2.16,2.148,2.16c1.303,0,2.114-0.8,2.114-2.16v-4.686h1.349V109.767z"/>
					<path fill="#1D1D1B" d="M103.888,110.659c-0.114,0.011-0.24,0.011-0.366,0.011h-1.896v2.412h-1.349v-8h3.245
						c2.046,0,3.224,0.994,3.224,2.731c0,1.28-0.595,2.183-1.657,2.594l1.794,2.674h-1.531L103.888,110.659z M103.521,109.458
						c1.234,0,1.943-0.525,1.943-1.611c0-1.051-0.709-1.554-1.943-1.554h-1.896v3.166H103.521z"/>
					<path fill="#1D1D1B" d="M115.126,106.281l-0.789,0.983c-0.583-0.628-1.417-1.017-2.229-1.017c-1.6,0-2.857,1.234-2.857,2.812
						s1.258,2.823,2.857,2.823c0.8,0,1.623-0.366,2.229-0.948l0.8,0.891c-0.812,0.8-1.966,1.315-3.097,1.315
						c-2.343,0-4.16-1.772-4.16-4.069c0-2.274,1.84-4.023,4.206-4.023C113.217,105.047,114.349,105.516,115.126,106.281z"/>
					<path fill="#1D1D1B" d="M117.861,106.293v2.16h3.908v1.212h-3.908v2.206h4.503v1.211h-5.852v-8h5.714v1.211H117.861z"/>
					<path fill="#1D1D1B" d="M129.441,105.847l-0.561,1.188c-0.868-0.526-1.737-0.743-2.343-0.743c-0.788,0-1.303,0.297-1.303,0.834
						c0,1.749,4.32,0.812,4.309,3.692c0,1.428-1.257,2.309-3.018,2.309c-1.257,0-2.445-0.515-3.269-1.269l0.583-1.166
						c0.823,0.754,1.852,1.166,2.709,1.166c0.937,0,1.497-0.354,1.497-0.972c0-1.783-4.32-0.789-4.32-3.634
						c0-1.372,1.178-2.229,2.914-2.229C127.681,105.024,128.698,105.355,129.441,105.847z"/>
				</g>
				<g clip-path="url(#SVGID_8_)">
					<path fill="#1D1D1B" d="M17.462,11.353l-1.235,1.463c-0.552-0.672-1.368-1.091-2.111-1.091c-1.332,0-2.339,1.055-2.339,2.435
						c0,1.403,1.007,2.471,2.339,2.471c0.708,0,1.523-0.384,2.111-0.983l1.247,1.319c-0.899,0.923-2.231,1.535-3.466,1.535
						c-2.53,0-4.413-1.859-4.413-4.318c0-2.423,1.931-4.246,4.485-4.246C15.327,9.938,16.623,10.49,17.462,11.353z"/>
					<path fill="#1D1D1B" d="M22.001,16.714h4.557v1.691h-7.412v-1.367l4.498-5.337h-4.342V10.01h7.184v1.367L22.001,16.714z"/>
					<path fill="#1D1D1B" d="M31.085,11.689v1.667h4.005v1.679h-4.005v1.691h4.569v1.679H28.95V10.01h6.573v1.679H31.085z"/>
					<path fill="#1D1D1B" d="M45.554,11.353l-1.235,1.463c-0.552-0.672-1.368-1.091-2.111-1.091c-1.332,0-2.339,1.055-2.339,2.435
						c0,1.403,1.007,2.471,2.339,2.471c0.708,0,1.523-0.384,2.111-0.983l1.247,1.319c-0.899,0.923-2.231,1.535-3.466,1.535
						c-2.53,0-4.413-1.859-4.413-4.318c0-2.423,1.931-4.246,4.485-4.246C43.419,9.938,44.714,10.49,45.554,11.353z"/>
					<path fill="#1D1D1B" d="M53.355,18.405v-3.262h-3.478v3.262h-2.135V10.01h2.135v3.454h3.478V10.01h2.135v8.396H53.355z"/>
				</g>
				<g clip-path="url(#SVGID_8_)">
					<path fill="#1D1D1B" d="M23.678,137.189l-1.674,3.474c-1.85-1.074-4.174-1.824-5.599-1.824c-1.15,0-1.925,0.425-1.925,1.274
						c0,3.024,9.248,1.3,9.248,7.624c0,3.499-3.1,5.349-6.999,5.349c-2.924,0-5.923-1.101-7.998-2.8l1.725-3.424
						c1.8,1.574,4.499,2.624,6.324,2.624c1.399,0,2.274-0.524,2.274-1.524c0-3.1-9.248-1.25-9.248-7.448
						c0-3.225,2.774-5.273,6.974-5.273C19.304,135.24,21.878,136.014,23.678,137.189z"/>
					<path fill="#1D1D1B" d="M44.402,145.586c0,4.624-3.074,7.549-7.973,7.549c-4.923,0-8.073-2.925-8.073-7.549v-10.147h4.449
						v10.147c0,2.375,1.525,3.824,3.649,3.824c2.099,0,3.524-1.449,3.524-3.824v-10.147h4.424V145.586z"/>
					<path fill="#1D1D1B" d="M65.402,152.935l-0.025-11.372l-4.199,9.622h-2.899l-4.199-9.622v11.372h-3.974v-17.521h4.874
						l4.749,10.422l4.749-10.422h4.849v17.521H65.402z"/>
					<path fill="#1D1D1B" d="M90.651,152.935l-0.024-11.372l-4.199,9.622h-2.899l-4.199-9.622v11.372h-3.974v-17.521h4.874
						l4.749,10.422l4.748-10.422h4.85v17.521H90.651z"/>
					<path fill="#1D1D1B" d="M100.605,152.935v-17.496h4.448v17.496H100.605z"/>
					<path fill="#1D1D1B" d="M119.153,139.013v13.922h-4.449v-13.922h-5.224v-3.599h14.946v3.599H119.153z"/>
				</g>
				<g clip-path="url(#SVGID_8_)">
					<path fill="#1D1D1B" d="M15.213,217.685l-1.659-5.457l-1.679,5.457h-1.219l-2.319-6.996h1.27l1.699,5.687l1.689-5.677
						l1.159-0.01l1.699,5.687l1.689-5.687h1.219l-2.338,6.996H15.213z"/>
					<path fill="#1D1D1B" d="M28.073,217.685l-1.659-5.457l-1.679,5.457h-1.219l-2.319-6.996h1.27l1.699,5.687l1.689-5.677
						l1.159-0.01l1.699,5.687l1.689-5.687h1.219l-2.338,6.996H28.073z"/>
					<path fill="#1D1D1B" d="M40.933,217.685l-1.659-5.457l-1.679,5.457h-1.219l-2.319-6.996h1.27l1.699,5.687l1.689-5.677
						l1.159-0.01l1.699,5.687l1.689-5.687h1.219l-2.338,6.996H40.933z"/>
					<path fill="#1D1D1B" d="M48.536,217.105c0,0.391-0.27,0.67-0.63,0.67s-0.629-0.279-0.629-0.67c0-0.38,0.27-0.649,0.629-0.649
						S48.536,216.725,48.536,217.105z"/>
					<path fill="#1D1D1B" d="M57.303,217.685v-2.898h-3.708v2.898h-1.179v-6.996h1.179v3.038h3.708v-3.038h1.18v6.996H57.303z"/>
					<path fill="#1D1D1B" d="M65.984,215.566c-0.1,0.011-0.21,0.011-0.32,0.011h-1.659v2.108h-1.179v-6.996h2.838
						c1.789,0,2.818,0.869,2.818,2.389c0,1.119-0.52,1.909-1.449,2.269l1.569,2.339h-1.339L65.984,215.566z M65.664,214.517
						c1.08,0,1.699-0.46,1.699-1.409c0-0.92-0.62-1.359-1.699-1.359h-1.659v2.769H65.664z"/>
					<path fill="#1D1D1B" d="M77.303,211.359l-0.49,1.039c-0.76-0.46-1.519-0.649-2.049-0.649c-0.69,0-1.14,0.26-1.14,0.729
						c0,1.529,3.778,0.71,3.768,3.229c0,1.249-1.1,2.019-2.639,2.019c-1.099,0-2.139-0.45-2.858-1.109l0.51-1.02
						c0.72,0.659,1.619,1.02,2.369,1.02c0.82,0,1.31-0.31,1.31-0.85c0-1.56-3.778-0.689-3.778-3.179c0-1.199,1.03-1.948,2.549-1.948
						C75.764,210.639,76.653,210.929,77.303,211.359z"/>
					<path fill="#1D1D1B" d="M87.223,214.787c0,1.829-1.149,2.948-3.039,2.948c-1.889,0-3.048-1.119-3.048-2.948v-4.098h1.179v4.098
						c0,1.18,0.73,1.889,1.879,1.889c1.14,0,1.85-0.699,1.85-1.889v-4.098h1.18V214.787z"/>
					<path fill="#1D1D1B" d="M97.722,217.685l-0.01-5.228l-2.209,4.498h-0.77l-2.208-4.498v5.228h-1.109v-6.996h1.398l2.31,4.647
						l2.298-4.647h1.39v6.996H97.722z"/>
					<path fill="#1D1D1B" d="M109.472,217.685l-0.01-5.228l-2.209,4.498h-0.77l-2.208-4.498v5.228h-1.109v-6.996h1.398l2.31,4.647
						l2.298-4.647h1.39v6.996H109.472z"/>
					<path fill="#1D1D1B" d="M114.916,217.685v-6.996h1.179v6.996H114.916z"/>
					<path fill="#1D1D1B" d="M122.994,211.749v5.937h-1.18v-5.937h-2.209v-1.06h5.607v1.06H122.994z"/>
					<path fill="#1D1D1B" d="M128.964,217.105c0,0.391-0.27,0.67-0.629,0.67c-0.36,0-0.63-0.279-0.63-0.67
						c0-0.38,0.27-0.649,0.63-0.649C128.694,216.456,128.964,216.725,128.964,217.105z"/>
					<path fill="#1D1D1B" d="M138.603,211.739l-0.69,0.859c-0.51-0.55-1.239-0.89-1.948-0.89c-1.399,0-2.499,1.079-2.499,2.458
						c0,1.38,1.1,2.469,2.499,2.469c0.699,0,1.419-0.319,1.948-0.829l0.7,0.779c-0.71,0.7-1.72,1.149-2.709,1.149
						c-2.049,0-3.638-1.549-3.638-3.558c0-1.989,1.609-3.519,3.678-3.519C136.933,210.659,137.923,211.069,138.603,211.739z"/>
					<path fill="#1D1D1B" d="M143.364,216.625h4.308v1.06h-5.906v-0.85l4.268-5.087h-4.138v-1.06h5.727v0.85L143.364,216.625z"/>
				</g>
				<g clip-path="url(#SVGID_8_)">
					<path fill="#1D1D1B" d="M12.523,194.935v-17.302h-4V173.2h9.519v21.735H12.523z"/>
					<path fill="#1D1D1B" d="M39.402,174.782l-2.108,3.844c-1.24-0.898-2.883-1.395-4.558-1.395c-3.473,0-5.147,2.201-5.085,5.767
						c1.023-1.457,2.76-2.325,5.178-2.325c4.279,0,7.008,2.791,7.008,7.008c0,4.588-3.225,7.503-8.124,7.503
						c-5.829,0-9.363-4.124-9.363-10.79c0-6.914,3.938-11.41,10.046-11.41C34.813,172.983,37.573,173.665,39.402,174.782z
						 M28.24,187.742c0,1.612,1.023,3.038,3.256,3.038c1.984,0,3.225-1.115,3.225-3.131c0-1.86-1.147-2.945-3.132-2.945
						C29.45,184.704,28.24,185.974,28.24,187.742z"/>
					<path fill="#1D1D1B" d="M47.026,192.579c0,1.551-1.085,2.604-2.604,2.604c-1.52,0-2.574-1.054-2.574-2.604
						c0-1.52,1.054-2.573,2.574-2.573C45.941,190.005,47.026,191.059,47.026,192.579z"/>
					<path fill="#1D1D1B" d="M62.681,177.603v3.503h1.954c4.961,0,8.216,2.667,8.216,6.543c0,4.558-3.41,7.503-8.65,7.503
						c-2.853,0-6.108-1.085-8.372-2.697l2.202-4.186c1.612,1.736,3.565,2.666,5.519,2.666c2.14,0,3.38-1.054,3.38-2.914
						c0-1.706-1.24-2.698-3.38-2.698c-1.116,0-4.558,0.063-5.891,0.155v-12.247H71.89v4.372H62.681z"/>
					<path fill="#1D1D1B" d="M80.195,192.579c0,1.551-1.085,2.604-2.604,2.604c-1.519,0-2.573-1.054-2.573-2.604
						c0-1.52,1.054-2.573,2.573-2.573C79.11,190.005,80.195,191.059,80.195,192.579z"/>
				</g>
				<g clip-path="url(#SVGID_8_)">
					<path fill="#1D1D1B" d="M107.929,181.813c0,1.899-1.4,3.874-3.3,5.824l-3.549,3.773h7.373v3.524H95.356v-2.874l6.248-6.624
						c0.976-1.024,1.675-2.199,1.675-2.999c0-1-0.725-1.6-1.975-1.6c-1.425,0-3.174,0.85-4.773,2.225l-1.675-3.199
						c2.199-1.649,4.599-2.624,7.099-2.624C105.429,177.24,107.929,179.039,107.929,181.813z"/>
					<path fill="#1D1D1B" d="M125.827,186.163c0,5.724-2.773,8.897-7.723,8.897c-4.999,0-7.773-3.174-7.773-8.897
						c0-5.699,2.774-8.873,7.773-8.873C123.054,177.29,125.827,180.463,125.827,186.163z M114.905,186.163
						c0,3.999,0.95,5.648,3.199,5.648c2.199,0,3.174-1.649,3.174-5.648s-0.975-5.624-3.174-5.624
						C115.855,180.539,114.905,182.164,114.905,186.163z"/>
					<path fill="#1D1D1B" d="M130.28,194.935v-13.946h-3.225v-3.574h7.673v17.521H130.28z"/>
					<path fill="#1D1D1B" d="M145.179,194.935h-4.699l6.249-13.972h-4.824v2.449h-3.898v-5.974h13.621v3.024L145.179,194.935z"/>
				</g>
				<g clip-path="url(#SVGID_8_)">
					<path fill="#1D1D1B" d="M124.873,168.533c1.254,0,1.976,0.616,1.976,1.709c0,1.148-0.722,1.813-1.976,1.813h-0.889v1.38h-1.247
						v-4.902H124.873z M123.984,171.075h0.826c0.546,0,0.861-0.273,0.861-0.791c0-0.512-0.315-0.771-0.861-0.771h-0.826V171.075z"/>
					<path fill="#1D1D1B" d="M129.725,172.055h-0.035h-0.945v1.38h-1.247v-4.902h2.192c1.296,0,2.038,0.616,2.038,1.709
						c0,0.749-0.315,1.288-0.89,1.575l1.029,1.618h-1.414L129.725,172.055z M129.689,171.075c0.539,0,0.854-0.273,0.854-0.791
						c0-0.512-0.315-0.771-0.854-0.771h-0.945v1.562H129.689z"/>
					<path fill="#1D1D1B" d="M133.679,172.532l-0.356,0.903h-1.282l2.115-4.902h1.282l2.065,4.902h-1.33l-0.351-0.903H133.679z
						 M134.758,169.772l-0.715,1.814h1.415L134.758,169.772z"/>
					<path fill="#1D1D1B" d="M142.164,170.942v1.912c-0.524,0.371-1.352,0.637-2.038,0.637c-1.491,0-2.619-1.078-2.619-2.507
						c0-1.422,1.155-2.493,2.703-2.493c0.729,0,1.499,0.28,2.004,0.729l-0.701,0.847c-0.356-0.329-0.854-0.532-1.31-0.532
						c-0.805,0-1.422,0.631-1.422,1.45c0,0.833,0.624,1.464,1.437,1.464c0.252,0,0.574-0.091,0.868-0.238v-1.268H142.164z"/>
					<path fill="#1D1D1B" d="M147.442,171.375c0,1.296-0.861,2.115-2.234,2.115c-1.379,0-2.262-0.819-2.262-2.115v-2.843h1.247
						v2.843c0,0.666,0.427,1.072,1.022,1.072c0.588,0,0.987-0.406,0.987-1.072v-2.843h1.239V171.375z"/>
					<path fill="#1D1D1B" d="M149.583,169.513v0.974h2.339v0.98h-2.339v0.987h2.668v0.98h-3.915v-4.902h3.838v0.98H149.583z"/>
				</g>
				<g clip-path="url(#SVGID_8_)">
					<path fill="#1D1D1B" d="M142.431,12.836c0.722-1.251,0.481-2.539,0.009-3.318c-0.322-0.529-0.506-0.754-2.417-1.857
						c-1.909-1.104-2.197-1.15-2.814-1.162c-0.911-0.021-2.147,0.412-2.869,1.666c-0.722,1.252-0.481,2.537-0.009,3.317
						c0.32,0.526,0.505,0.753,2.416,1.856c1.91,1.103,2.196,1.149,2.815,1.163C140.473,14.522,141.706,14.088,142.431,12.836
						 M135.418,10.426c-0.172-0.427-0.202-0.995,0.127-1.564c0.331-0.57,0.836-0.829,1.291-0.895
						c0.585-0.082,0.857-0.041,2.489,0.901c1.633,0.943,1.805,1.16,2.026,1.705c0.172,0.427,0.199,0.996-0.129,1.566
						c-0.329,0.569-0.836,0.829-1.292,0.895c-0.582,0.08-0.857,0.04-2.488-0.903C135.811,11.189,135.637,10.971,135.418,10.426
						 M147.981,15.62c-1.104-1.912-1.33-2.096-1.856-2.416c-0.78-0.475-2.068-0.714-3.318,0.007
						c-1.251,0.725-1.688,1.958-1.668,2.872c0.016,0.617,0.061,0.902,1.165,2.814c1.103,1.91,1.328,2.094,1.854,2.415
						c0.781,0.474,2.067,0.714,3.32-0.009c1.252-0.721,1.686-1.957,1.665-2.871C149.129,17.815,149.084,17.531,147.981,15.62
						 M147.674,18.805c-0.066,0.455-0.322,0.962-0.894,1.291c-0.569,0.328-1.14,0.299-1.565,0.129
						c-0.545-0.222-0.764-0.394-1.706-2.027c-0.94-1.63-0.979-1.904-0.9-2.488c0.066-0.456,0.325-0.961,0.895-1.291
						c0.569-0.331,1.139-0.299,1.564-0.126c0.546,0.218,0.766,0.39,1.705,2.022C147.715,17.948,147.756,18.221,147.674,18.805
						 M140.434,17.033c-0.63,0.63-1.36,0.63-1.906,0.082c-0.547-0.549-0.547-1.278,0.082-1.909l0.369-0.368
						c-0.313-0.062-0.684-0.208-1.319-0.544l-0.034,0.037c-1.195,1.195-0.986,2.755-0.028,3.713c0.959,0.959,2.52,1.169,3.714-0.026
						l0.036-0.037c-0.335-0.635-0.48-1.004-0.543-1.317L140.434,17.033z M142.772,9.315c0.21,0.348,0.376,0.787,0.453,1.276
						l0.089-0.087c0.629-0.63,1.359-0.63,1.905-0.083c0.548,0.547,0.548,1.279-0.082,1.908l-0.086,0.088
						c0.488,0.078,0.927,0.242,1.275,0.454c0.021,0.011,0.038,0.022,0.058,0.035c0.354-0.456,0.526-0.95,0.552-1.435
						c0.132,0.081,0.284,0.129,0.449,0.129c0.472,0,0.852-0.379,0.852-0.848c0-0.47-0.38-0.851-0.852-0.851
						c-0.283,0-0.537,0.141-0.691,0.357c-0.13-0.281-0.316-0.541-0.544-0.767c-0.226-0.227-0.485-0.412-0.768-0.545
						c0.215-0.154,0.357-0.406,0.357-0.692c0-0.468-0.378-0.849-0.85-0.849c-0.468,0-0.851,0.381-0.851,0.849
						c0,0.165,0.05,0.32,0.131,0.45c-0.485,0.025-0.979,0.199-1.436,0.552C142.749,9.276,142.759,9.295,142.772,9.315"/>
				</g>
			</g>
		</g>
	</g>
</g>
</svg>
