<?xml version="1.0" encoding="utf-8"?>
<!-- Generator: Adobe Illustrator 16.0.3, SVG Export Plug-In . SVG Version: 6.00 Build 0)  -->
<!DOCTYPE svg PUBLIC "-//W3C//DTD SVG 1.1//EN" "http://www.w3.org/Graphics/SVG/1.1/DTD/svg11.dtd">
<svg version="1.1" id="Vrstva_1" xmlns="http://www.w3.org/2000/svg" xmlns:xlink="http://www.w3.org/1999/xlink" x="0px" y="0px"
	 width="248.52px" height="109.5px" viewBox="0 0 248.52 109.5" enable-background="new 0 0 248.52 109.5" xml:space="preserve">
<g>
	<g>
		<g>
			<rect x="8.074" y="36.882" width="235.07" height="1.24"/>
		</g>
		<g>
			<rect x="8.074" y="69.124" width="235.07" height="1.24"/>
		</g>
		<g>
			<rect x="7.524" y="5.362" width="1.24" height="97.349"/>
		</g>
	</g>
	<g>
		<g>
			<path d="M24.491,27.437h8.248v3.061H19.326v-2.474l8.139-9.659h-7.856v-3.061h13v2.475L24.491,27.437z"/>
		</g>
		<g>
			<path d="M40.507,27.697l-1.107,2.8h-3.972l6.555-15.193h3.972l6.403,15.193h-4.124l-1.086-2.8H40.507z M43.85,19.146
				l-2.214,5.621h4.385L43.85,19.146z"/>
		</g>
		<g>
			<path d="M69.219,30.497l-0.021-9.875l-3.646,8.356h-2.518l-3.646-8.356v9.875h-3.451V15.283h4.232l4.124,9.05l4.124-9.05h4.21
				v15.214H69.219z"/>
		</g>
		<g>
			<path d="M81.718,18.343v3.017h7.25v3.039h-7.25v3.06h8.27v3.039H77.855V15.304h11.894v3.04H81.718z M82.435,10.486l1.324,1.997
				l1.324-1.997h2.93l-2.626,3.559h-3.256l-2.626-3.559H82.435z"/>
		</g>
		<g>
			<path d="M106.481,16.823l-1.454,3.017c-1.606-0.934-3.625-1.584-4.862-1.584c-0.998,0-1.671,0.369-1.671,1.107
				c0,2.626,8.031,1.128,8.031,6.62c0,3.039-2.692,4.645-6.078,4.645c-2.539,0-5.144-0.955-6.945-2.431L95,25.223
				c1.562,1.367,3.906,2.279,5.491,2.279c1.215,0,1.975-0.456,1.975-1.324c0-2.691-8.03-1.085-8.03-6.467
				c0-2.8,2.409-4.58,6.055-4.58C102.683,15.131,104.918,15.804,106.481,16.823z"/>
		</g>
		<g>
			<path d="M117.831,18.408v12.089h-3.863V18.408h-4.536v-3.125h12.979v3.125H117.831z"/>
		</g>
		<g>
			<path d="M136.842,30.497l-6.989-9.354v9.354h-3.624V15.304h3.408l7.009,9.376v-9.376h3.604v15.193H136.842z"/>
		</g>
		<g>
			<path d="M148.906,27.697l-1.106,2.8h-3.972l6.556-15.193h3.971l6.403,15.193h-4.124l-1.086-2.8H148.906z M152.249,19.146
				l-2.214,5.621h4.385L152.249,19.146z"/>
		</g>
		<g>
			<path d="M174.95,30.497l-6.989-9.354v9.354h-3.625V15.304h3.408l7.011,9.376v-9.376h3.602v15.193H174.95z"/>
		</g>
		<g>
			<path d="M198.995,22.879c0,4.428-3.516,7.792-8.226,7.792c-4.688,0-8.203-3.343-8.203-7.792c0-4.428,3.516-7.705,8.203-7.705
				C195.479,15.174,198.995,18.473,198.995,22.879z M186.517,22.901c0,2.561,1.974,4.536,4.297,4.536
				c2.345,0,4.211-1.975,4.211-4.536c0-2.562-1.866-4.493-4.211-4.493S186.517,20.339,186.517,22.901z"/>
		</g>
		<g>
			<path d="M215.033,16.823l-1.455,3.017c-1.605-0.934-3.624-1.584-4.861-1.584c-0.997,0-1.671,0.369-1.671,1.107
				c0,2.626,8.03,1.128,8.03,6.62c0,3.039-2.692,4.645-6.078,4.645c-2.538,0-5.144-0.955-6.944-2.431l1.497-2.974
				c1.563,1.367,3.907,2.279,5.491,2.279c1.216,0,1.977-0.456,1.977-1.324c0-2.691-8.032-1.085-8.032-6.467
				c0-2.8,2.41-4.58,6.056-4.58C211.233,15.131,213.47,15.804,215.033,16.823z"/>
		</g>
		<g>
			<path d="M226.382,18.408v12.089h-3.863V18.408h-4.536v-3.125h12.979v3.125H226.382z"/>
		</g>
		<g>
			<path d="M29.116,61.5l-5.99-8.018V61.5H20.02V48.479h2.92l6.008,8.036v-8.036h3.088V61.5H29.116z"/>
		</g>
		<g>
			<path d="M39.812,51.083v2.585h6.213v2.604h-6.213v2.623h7.087V61.5H36.501V48.479h10.193v2.604H39.812z"/>
		</g>
		<g>
			<path d="M57.056,48.479c2.92,0,4.78,1.265,4.78,3.255c0,1.376-0.855,2.474-2.232,2.864c1.637,0.316,2.678,1.599,2.678,3.292
				c0,2.214-1.935,3.609-5.003,3.609h-6.38V48.479H57.056z M54.191,53.687h2.678c0.967,0,1.581-0.521,1.581-1.357
				c0-0.837-0.614-1.321-1.581-1.321h-2.678V53.687z M54.191,58.951h2.678c1.228,0,1.99-0.54,1.99-1.47
				c0-0.874-0.763-1.413-1.99-1.413h-2.678V58.951z"/>
		</g>
		<g>
			<path d="M79.284,54.971c0,3.794-3.013,6.678-7.049,6.678c-4.018,0-7.031-2.864-7.031-6.678c0-3.794,3.014-6.603,7.031-6.603
				C76.271,48.368,79.284,51.195,79.284,54.971z M68.589,54.989c0,2.194,1.692,3.888,3.683,3.888c2.009,0,3.609-1.693,3.609-3.888
				s-1.6-3.85-3.609-3.85C70.263,51.139,68.589,52.795,68.589,54.989z"/>
		</g>
		<g>
			<path d="M29.116,92.502l-5.99-8.017v8.017H20.02V79.481h2.92l6.008,8.036v-8.036h3.088v13.021H29.116z"/>
		</g>
		<g>
			<path d="M39.812,82.086v2.586h6.213v2.604h-6.213v2.623h7.087v2.604H36.501V79.481h10.193v2.604H39.812z"/>
		</g>
		<g>
			<path d="M54.544,89.879h7.068v2.623H50.118v-2.12l6.976-8.277h-6.734v-2.623h11.143v2.121L54.544,89.879z"/>
		</g>
		<g>
			<path d="M68.273,90.102l-0.949,2.4H63.92l5.617-13.021h3.404l5.487,13.021h-3.535l-0.929-2.4H68.273z M71.137,82.774
				l-1.897,4.817h3.757L71.137,82.774z"/>
		</g>
		<g>
			<path d="M92.882,92.502l-0.019-8.463L89.738,91.2h-2.158l-3.125-7.161v8.463h-2.958V79.463h3.627l3.535,7.757l3.534-7.757h3.608
				v13.039H92.882z"/>
		</g>
		<g>
			<path d="M103.596,82.086v2.586h6.213v2.604h-6.213v2.623h7.087v2.604h-10.398V79.481h10.193v2.604H103.596z M104.21,75.352
				l1.135,1.712l1.135-1.712h2.511l-2.25,3.052h-2.791l-2.25-3.052H104.21z"/>
		</g>
		<g>
			<path d="M124.82,80.784l-1.246,2.584c-1.376-0.799-3.106-1.355-4.167-1.355c-0.855,0-1.432,0.314-1.432,0.946
				c0,2.252,6.882,0.969,6.882,5.674c0,2.605-2.306,3.98-5.208,3.98c-2.176,0-4.408-0.818-5.952-2.083l1.284-2.548
				c1.339,1.173,3.348,1.952,4.706,1.952c1.042,0,1.692-0.39,1.692-1.133c0-2.308-6.882-0.931-6.882-5.545
				c0-2.398,2.065-3.924,5.19-3.924C121.565,79.333,123.481,79.91,124.82,80.784z"/>
		</g>
		<g>
			<path d="M134.548,82.142v10.36h-3.311v-10.36h-3.888v-2.679h11.125v2.679H134.548z"/>
		</g>
		<g>
			<path d="M150.844,92.502l-5.989-8.017v8.017h-3.106V79.481h2.92l6.009,8.036v-8.036h3.088v13.021H150.844z"/>
		</g>
		<g>
			<path d="M161.187,90.102l-0.948,2.4h-3.404l5.616-13.021h3.406l5.485,13.021h-3.533l-0.931-2.4H161.187z M164.052,82.774
				l-1.897,4.817h3.758L164.052,82.774z"/>
		</g>
		<g>
			<path d="M183.508,92.502l-5.989-8.017v8.017h-3.106V79.481h2.92l6.009,8.036v-8.036h3.089v13.021H183.508z"/>
		</g>
		<g>
			<path d="M204.117,85.974c0,3.794-3.013,6.678-7.048,6.678c-4.019,0-7.031-2.864-7.031-6.678c0-3.794,3.013-6.604,7.031-6.604
				C201.104,79.37,204.117,82.197,204.117,85.974z M193.423,85.992c0,2.194,1.692,3.887,3.683,3.887c2.01,0,3.609-1.692,3.609-3.887
				c0-2.195-1.6-3.851-3.609-3.851C195.098,82.142,193.423,83.797,193.423,85.992z"/>
		</g>
		<g>
			<path d="M217.865,80.784l-1.247,2.584c-1.376-0.799-3.105-1.355-4.166-1.355c-0.855,0-1.432,0.314-1.432,0.946
				c0,2.252,6.881,0.969,6.881,5.674c0,2.605-2.306,3.98-5.207,3.98c-2.178,0-4.408-0.818-5.953-2.083l1.283-2.548
				c1.34,1.173,3.349,1.952,4.706,1.952c1.042,0,1.693-0.39,1.693-1.133c0-2.308-6.883-0.931-6.883-5.545
				c0-2.398,2.065-3.924,5.189-3.924C214.61,79.333,216.526,79.91,217.865,80.784z"/>
		</g>
		<g>
			<path d="M227.593,82.142v10.36h-3.312v-10.36h-3.887v-2.679h11.124v2.679H227.593z"/>
		</g>
	</g>
</g>
</svg>
