<svg xmlns="http://www.w3.org/2000/svg" xmlns:xlink="http://www.w3.org/1999/xlink" width="250.5" height="83"><path d="M24.532 31.731c-.167.983-.455 1.837-.863 2.563s-.908 1.329-1.5 1.813-1.258.842-2 1.075a7.922 7.922 0 01-2.387.35c-1.05 0-1.975-.17-2.775-.512a6.893 6.893 0 01-2.175-1.488c-.467-.466-.825-.971-1.075-1.512s-.43-1.113-.538-1.713c-.109-.6-.167-1.221-.175-1.862a157.381 157.381 0 010-3.924c.008-.641.066-1.263.175-1.863.108-.6.288-1.17.538-1.712a5.25 5.25 0 011.075-1.513 6.873 6.873 0 012.175-1.487c.8-.341 1.725-.513 2.775-.513.85 0 1.646.117 2.387.35.742.234 1.408.592 2 1.075s1.092 1.087 1.5 1.813.696 1.579.863 2.563h-4.45a3.283 3.283 0 00-.7-1.325c-.334-.383-.859-.575-1.575-.575-.4 0-.746.071-1.038.212s-.521.321-.688.538a2.88 2.88 0 00-.275.45c-.083.167-.154.409-.212.725-.059.317-.104.729-.138 1.237-.034.509-.05 1.171-.05 1.988s.016 1.479.05 1.987c.033.509.079.921.138 1.238.058.316.129.559.212.725.083.167.175.317.275.45.167.217.396.396.688.538s.638.212 1.038.212c.716 0 1.241-.191 1.575-.575a3.29 3.29 0 00.7-1.325h4.45zm3.75 5.65v-3.4l6.825-10.5h-6.525v-3.9h11.775v3.4l-6.85 10.5h6.85v3.9H28.282zm17.125 0v-17.8h12.1v3.9h-7.725v2.975h6.6v3.9h-6.6v3.125h7.725v3.9h-12.1zm30.625-5.65c-.167.983-.454 1.837-.862 2.563a6.333 6.333 0 01-1.5 1.813 5.965 5.965 0 01-2 1.075 7.929 7.929 0 01-2.388.35c-1.05 0-1.975-.17-2.775-.512a6.893 6.893 0 01-2.175-1.488c-.467-.466-.825-.971-1.075-1.512s-.429-1.113-.538-1.713c-.108-.6-.167-1.221-.175-1.862a140.096 140.096 0 010-3.924c.008-.642.066-1.263.175-1.863s.288-1.17.538-1.712a5.25 5.25 0 011.075-1.513 6.873 6.873 0 012.175-1.487c.8-.341 1.725-.513 2.775-.513.85 0 1.646.117 2.388.35a5.983 5.983 0 012 1.075 6.306 6.306 0 011.5 1.813c.408.725.696 1.579.862 2.563h-4.45a3.296 3.296 0 00-.7-1.325c-.333-.383-.858-.575-1.575-.575-.4 0-.746.071-1.038.212a1.89 1.89 0 00-.688.538 2.88 2.88 0 00-.275.45c-.084.167-.154.409-.213.725-.059.317-.104.729-.137 1.237-.034.509-.05 1.171-.05 1.988s.017 1.479.05 1.987c.033.509.079.921.137 1.238s.129.559.213.725c.083.167.175.317.275.45.167.217.396.396.688.538.292.142.637.212 1.038.212.716 0 1.241-.191 1.575-.575a3.29 3.29 0 00.7-1.325h4.45zm13.825 5.65v-7.05h-4.65v7.05h-4.375v-17.8h4.375v6.85h4.65v-6.85h4.375v17.8h-4.375z"/><defs><path id="a" d="M0 0h250.5v83H0z"/></defs><clipPath id="b"><use xlink:href="#a" overflow="visible"/></clipPath><path clip-path="url(#b)" d="M155.295 63.502V44.89h-12.276v18.612h-11.55V16.509h11.55v18.084h12.276V16.509h11.55v46.993h-11.55zm48.773 0l-8.316-17.49h-3.894v17.49h-11.55V16.509h18.611c2.596 0 4.895.429 6.897 1.287 2.001.858 3.673 1.991 5.016 3.399a14.565 14.565 0 013.069 4.851 15.415 15.415 0 011.056 5.577c0 1.584-.23 3.036-.692 4.356-.463 1.32-1.057 2.498-1.782 3.531a12.854 12.854 0 01-2.442 2.64 13.834 13.834 0 01-2.739 1.749l10.164 19.603h-13.398zm-.66-31.944c0-1.231-.44-2.332-1.32-3.3-.881-.967-2.111-1.452-3.695-1.452h-6.534v9.504h6.534c1.584 0 2.814-.484 3.695-1.452.88-.968 1.32-2.068 1.32-3.3z"/><path d="M22.557 57.83c0 .899-.184 1.7-.55 2.399a5.247 5.247 0 01-1.488 1.763c-.625.476-1.354.834-2.188 1.075s-1.717.362-2.65.362c-.684 0-1.337-.037-1.962-.112s-1.217-.2-1.775-.375a6.98 6.98 0 01-3.013-1.862l2.8-2.8c.467.467 1.066.791 1.8.975a8.906 8.906 0 002.175.275c1.7 0 2.55-.533 2.55-1.601 0-.433-.117-.783-.35-1.05-.234-.233-.625-.392-1.175-.475l-2.15-.301c-1.583-.232-2.775-.758-3.575-1.574-.817-.816-1.225-2.009-1.225-3.575 0-.816.15-1.566.45-2.25.3-.684.729-1.275 1.288-1.775.558-.5 1.238-.892 2.038-1.175s1.708-.425 2.725-.425c1.3 0 2.433.162 3.4.487.966.325 1.833.871 2.6 1.638l-2.75 2.75c-.417-.417-.871-.696-1.363-.838s-.929-.212-1.313-.212h-.7c-.384 0-.708.05-.975.149a2.062 2.062 0 00-.663.388 1.53 1.53 0 00-.387.525 1.444 1.444 0 00-.125.587c0 .117.025.25.075.4.05.149.142.292.275.425.117.117.271.225.463.325.191.1.445.167.762.2l2.15.3c1.566.233 2.733.725 3.5 1.475a3.885 3.885 0 011.025 1.663c.201.643.301 1.388.301 2.239zm18.575-.8c0 .983-.179 1.866-.538 2.649a6.114 6.114 0 01-1.462 2.013 6.47 6.47 0 01-2.163 1.287 7.561 7.561 0 01-2.612.45 7.43 7.43 0 01-2.613-.45 6.53 6.53 0 01-2.137-1.287 5.958 5.958 0 01-1.45-2.013c-.35-.783-.525-1.666-.525-2.649V45.479h4.375v11.45c0 .851.204 1.496.612 1.938.408.442.988.663 1.738.663s1.337-.221 1.762-.663c.425-.441.638-1.087.638-1.938v-11.45h4.375V57.03zm18.025 6.25v-8.525l-2.525 4.4h-2.8l-2.525-4.4v8.525h-4.375V45.479h4.3l4 7.851 4-7.851h4.3V63.28h-4.375zm22.7 0v-8.525l-2.525 4.4h-2.8l-2.525-4.4v8.525h-4.375V45.479h4.3l4 7.851 4-7.851h4.3V63.28h-4.375zm10.476 0V45.479h4.375V63.28h-4.375zm18.174-13.9v13.9h-4.375v-13.9h-4.375v-3.9h13.125v3.9h-4.375z"/><defs><path id="c" d="M0 0h250.5v83H0z"/></defs><clipPath id="d"><use xlink:href="#c" overflow="visible"/></clipPath><path clip-path="url(#d)" fill="none" stroke="#000" stroke-width="2" stroke-miterlimit="10" d="M1 1h248.5v81H1zM.982 75.417H249.5m-23.953.083v7m4-7v7m4-7v7m4-7v7"/><path clip-path="url(#d)" d="M232.931 13.335a3.27 3.27 0 00.009-3.318c-.322-.529-.506-.754-2.417-1.857-1.909-1.103-2.197-1.149-2.814-1.162a3.26 3.26 0 00-2.869 1.666 3.268 3.268 0 00-.009 3.317c.32.527.505.753 2.416 1.857 1.91 1.102 2.196 1.149 2.815 1.162a3.262 3.262 0 002.869-1.665m-7.013-2.41a1.763 1.763 0 01.127-1.564 1.774 1.774 0 011.291-.894c.585-.082.857-.041 2.489.901 1.633.942 1.805 1.16 2.026 1.705.172.426.199.995-.129 1.565a1.77 1.77 0 01-1.292.895c-.582.08-.857.04-2.488-.902-1.631-.942-1.805-1.161-2.024-1.706m12.563 5.194c-1.104-1.912-1.33-2.095-1.856-2.415a3.26 3.26 0 00-3.318.007 3.27 3.27 0 00-1.668 2.871c.016.617.061.903 1.165 2.815 1.103 1.91 1.328 2.094 1.854 2.415a3.27 3.27 0 003.32-.01 3.259 3.259 0 001.665-2.87c-.014-.617-.059-.902-1.162-2.813m-.307 3.185a1.763 1.763 0 01-.894 1.291c-.569.329-1.14.3-1.565.129-.545-.222-.764-.393-1.706-2.026-.94-1.631-.979-1.905-.9-2.489.066-.455.325-.961.895-1.291s1.139-.299 1.564-.126c.546.219.766.391 1.705 2.023.942 1.633.983 1.906.901 2.489m-7.24-1.772c-.63.63-1.36.63-1.906.082-.547-.549-.547-1.277.082-1.909l.369-.367c-.313-.063-.684-.208-1.319-.544l-.034.037c-1.195 1.194-.986 2.754-.028 3.713.959.958 2.52 1.168 3.714-.027l.036-.037c-.335-.635-.48-1.004-.543-1.317l-.371.369zm2.338-7.718c.21.349.376.788.453 1.277l.089-.087c.629-.631 1.359-.631 1.905-.083.548.547.548 1.278-.082 1.908l-.086.087a3.55 3.55 0 011.275.454l.058.035c.354-.456.526-.949.552-1.435a.85.85 0 10-.242-1.212 2.663 2.663 0 00-.544-.768 2.717 2.717 0 00-.768-.545.848.848 0 00-.493-1.541.852.852 0 00-.851.85c0 .165.05.319.131.449a2.551 2.551 0 00-1.436.553c.016.019.026.038.039.058"/></svg>