<?xml version="1.0" encoding="utf-8"?>
<!-- Generator: Adobe Illustrator 13.0.0, SVG Export Plug-In . SVG Version: 6.00 Build 14948)  -->
<!DOCTYPE svg PUBLIC "-//W3C//DTD SVG 1.1//EN" "http://www.w3.org/Graphics/SVG/1.1/DTD/svg11.dtd">
<svg version="1.1" id="Layer_1" xmlns="http://www.w3.org/2000/svg" xmlns:xlink="http://www.w3.org/1999/xlink" x="0px" y="0px"
	 width="190px" height="78.5px" viewBox="0 0 190 78.5" enable-background="new 0 0 190 78.5" xml:space="preserve">
<g>
	<g>
		<defs>
			<rect id="SVGID_1_" width="190" height="78.5"/>
		</defs>
		<clipPath id="SVGID_2_">
			<use xlink:href="#SVGID_1_"  overflow="visible"/>
		</clipPath>
		<g clip-path="url(#SVGID_2_)">
			<g>
				<defs>
					<rect id="SVGID_3_" width="190" height="78.5"/>
				</defs>
				<clipPath id="SVGID_4_">
					<use xlink:href="#SVGID_3_"  overflow="visible"/>
				</clipPath>
				<g clip-path="url(#SVGID_4_)">
					<g>
						<g>
							<defs>
								<rect id="SVGID_5_" width="190" height="78.5"/>
							</defs>
							<defs>
								<rect id="SVGID_6_" width="190" height="78.5"/>
							</defs>
							<defs>
								<rect id="SVGID_7_" width="190" height="78.5"/>
							</defs>
							<clipPath id="SVGID_8_">
								<use xlink:href="#SVGID_5_"  overflow="visible"/>
							</clipPath>
							<clipPath id="SVGID_9_" clip-path="url(#SVGID_8_)">
								<use xlink:href="#SVGID_6_"  overflow="visible"/>
							</clipPath>
							<clipPath id="SVGID_10_" clip-path="url(#SVGID_9_)">
								<use xlink:href="#SVGID_7_"  overflow="visible"/>
							</clipPath>
							<g clip-path="url(#SVGID_10_)">
								<polygon points="1.25,26.417 1.25,25.417 189.999,25.417 189.999,26.417 								"/>
							</g>
							<g clip-path="url(#SVGID_10_)">
								<polygon points="1.25,52.417 1.25,51.417 189.999,51.417 189.999,52.417 								"/>
							</g>
							<g clip-path="url(#SVGID_10_)">
								<polygon points="0,78.5 0,0 1,0 1,78.5 								"/>
							</g>
						</g>
					</g>
					<g>
						<defs>
							<rect id="SVGID_11_" width="190" height="78.5"/>
						</defs>
						<clipPath id="SVGID_12_">
							<use xlink:href="#SVGID_11_"  overflow="visible"/>
						</clipPath>
						<g clip-path="url(#SVGID_12_)">
							<g>
								<g>
									<defs>
										<rect id="SVGID_13_" x="9.027" y="1.438" width="173.188" height="73.253"/>
									</defs>
									<defs>
										<rect id="SVGID_14_" x="9.027" y="1.438" width="173.188" height="73.253"/>
									</defs>
									<defs>
										<rect id="SVGID_15_" x="9.027" y="1.438" width="173.188" height="73.253"/>
									</defs>
									<clipPath id="SVGID_16_">
										<use xlink:href="#SVGID_13_"  overflow="visible"/>
									</clipPath>
									<clipPath id="SVGID_17_" clip-path="url(#SVGID_16_)">
										<use xlink:href="#SVGID_14_"  overflow="visible"/>
									</clipPath>
									<clipPath id="SVGID_18_" clip-path="url(#SVGID_17_)">
										<use xlink:href="#SVGID_15_"  overflow="visible"/>
									</clipPath>
									<g clip-path="url(#SVGID_18_)">
										<path d="M13.614,17.779h6.653v2.469H9.447v-1.996l6.566-7.792H9.675V7.993h10.487v1.996L13.614,17.779z"/>
										<path d="M26.535,17.989l-0.893,2.259h-3.204l5.288-12.256h3.204l5.165,12.256h-3.326l-0.875-2.259H26.535z M29.23,11.091
											l-1.786,4.535h3.537L29.23,11.091z"/>
										<path d="M49.698,20.248l-0.018-7.967l-2.941,6.741h-2.031l-2.941-6.741v7.967h-2.784V7.974h3.414l3.327,7.301l3.327-7.301
											h3.397v12.274H49.698z"/>
										<path d="M59.783,10.443v2.434h5.848v2.451h-5.848v2.469h6.671v2.451h-9.788V7.992h9.595v2.451H59.783z M60.361,4.105
											l1.068,1.611l1.068-1.611h2.363l-2.119,2.872h-2.626l-2.119-2.872H60.361z"/>
										<path d="M79.743,9.217l-1.173,2.434c-1.295-0.753-2.924-1.278-3.922-1.278c-0.805,0-1.349,0.298-1.349,0.893
											c0,2.119,6.478,0.911,6.478,5.34c0,2.452-2.171,3.746-4.903,3.746c-2.048,0-4.149-0.771-5.603-1.96l1.208-2.399
											c1.261,1.103,3.152,1.838,4.43,1.838c0.98,0,1.593-0.367,1.593-1.068c0-2.171-6.478-0.875-6.478-5.217
											c0-2.259,1.943-3.694,4.885-3.694C76.679,7.852,78.482,8.395,79.743,9.217z"/>
										<path d="M88.9,10.497v9.751h-3.116v-9.751h-3.66V7.976h10.47v2.521H88.9z"/>
										<path d="M104.237,20.248L98.6,12.702v7.546h-2.924V7.992h2.748l5.656,7.563V7.993h2.906v12.256L104.237,20.248
											L104.237,20.248z"/>
										<path d="M113.973,17.989l-0.895,2.259h-3.204l5.288-12.256h3.203l5.166,12.256h-3.327l-0.876-2.259H113.973z
											 M116.669,11.091l-1.787,4.535h3.538L116.669,11.091z"/>
										<path d="M134.982,20.248l-5.638-7.546v7.546h-2.924V7.992h2.748l5.656,7.563V7.993h2.904v12.256L134.982,20.248
											L134.982,20.248z"/>
										<path d="M154.381,14.103c0,3.572-2.838,6.286-6.637,6.286c-3.781,0-6.618-2.696-6.618-6.286
											c0-3.572,2.837-6.215,6.618-6.215C151.545,7.888,154.381,10.548,154.381,14.103z M144.313,14.12
											c0,2.066,1.594,3.659,3.467,3.659c1.891,0,3.396-1.593,3.396-3.659c0-2.066-1.506-3.623-3.396-3.623
											C145.889,10.497,144.313,12.055,144.313,14.12z"/>
										<path d="M167.319,9.217l-1.173,2.434c-1.296-0.753-2.925-1.278-3.922-1.278c-0.804,0-1.347,0.298-1.347,0.893
											c0,2.119,6.478,0.911,6.478,5.34c0,2.452-2.171,3.746-4.902,3.746c-2.049,0-4.148-0.771-5.604-1.96l1.209-2.399
											c1.261,1.103,3.151,1.838,4.43,1.838c0.979,0,1.593-0.367,1.593-1.068c0-2.171-6.478-0.875-6.478-5.217
											c0-2.259,1.942-3.694,4.885-3.694C164.256,7.852,166.059,8.395,167.319,9.217z"/>
										<path d="M176.478,10.497v9.751h-3.116v-9.751h-3.659V7.976h10.469v2.521H176.478z"/>
									</g>
									<g clip-path="url(#SVGID_18_)">
										<path d="M17.412,45.273l-4.83-6.465v6.465h-2.505v-10.5h2.355l4.845,6.48v-6.48h2.49v10.5H17.412z"/>
										<path d="M26.037,36.874v2.084h5.01v2.101h-5.01v2.114h5.715v2.101h-8.385v-10.5h8.22v2.1L26.037,36.874L26.037,36.874z"/>
										<path d="M39.941,34.774c2.355,0,3.855,1.02,3.855,2.625c0,1.11-0.69,1.995-1.8,2.31c1.32,0.255,2.16,1.291,2.16,2.654
											c0,1.785-1.56,2.91-4.035,2.91h-5.145v-10.5H39.941z M37.632,38.974h2.16c0.78,0,1.275-0.42,1.275-1.095
											c0-0.675-0.495-1.065-1.275-1.065h-2.16V38.974z M37.632,43.219h2.16c0.99,0,1.605-0.436,1.605-1.186
											c0-0.705-0.615-1.141-1.605-1.141h-2.16V43.219z"/>
										<path d="M57.866,40.009c0,3.06-2.43,5.386-5.685,5.386c-3.24,0-5.67-2.311-5.67-5.386c0-3.06,2.43-5.325,5.67-5.325
											C55.437,34.684,57.866,36.964,57.866,40.009z M49.242,40.023c0,1.771,1.365,3.135,2.97,3.135
											c1.62,0,2.91-1.364,2.91-3.135s-1.29-3.104-2.91-3.104S49.242,38.254,49.242,40.023z"/>
									</g>
									<g clip-path="url(#SVGID_18_)">
										<path d="M17.412,70.277l-4.83-6.465v6.465h-2.505v-10.5h2.355l4.845,6.48v-6.48h2.49v10.5H17.412z"/>
										<path d="M26.037,61.879v2.085h5.01v2.101h-5.01v2.115h5.715v2.1h-8.385v-10.5h8.22v2.101L26.037,61.879L26.037,61.879z"/>
										<path d="M37.917,68.163h5.7v2.114h-9.27v-1.709l5.625-6.676h-5.43v-2.115h8.985v1.711L37.917,68.163z"/>
										<path d="M48.987,68.344l-0.765,1.936h-2.745l4.53-10.5h2.745l4.425,10.5h-2.85l-0.75-1.936H48.987z M51.296,62.434
											l-1.53,3.885h3.03L51.296,62.434z"/>
										<path d="M68.831,70.277l-0.015-6.824l-2.52,5.775h-1.74l-2.52-5.775v6.824h-2.385V59.764h2.925l2.85,6.256l2.85-6.256
											h2.91v10.516h-2.355V70.277z"/>
										<path d="M77.471,61.879v2.085h5.01v2.101h-5.01v2.115h5.715v2.1h-8.385v-10.5h8.22v2.101L77.471,61.879L77.471,61.879z
											 M77.966,56.449l0.915,1.38l0.915-1.38h2.025l-1.815,2.46h-2.25l-1.815-2.46H77.966z"/>
										<path d="M94.586,60.829l-1.005,2.085c-1.11-0.646-2.505-1.096-3.36-1.096c-0.69,0-1.155,0.254-1.155,0.766
											c0,1.814,5.549,0.779,5.549,4.574c0,2.101-1.86,3.21-4.2,3.21c-1.755,0-3.555-0.66-4.8-1.681l1.035-2.055
											c1.08,0.944,2.7,1.574,3.795,1.574c0.84,0,1.365-0.314,1.365-0.915c0-1.858-5.55-0.749-5.55-4.47
											c0-1.936,1.665-3.164,4.185-3.164C91.961,59.659,93.506,60.124,94.586,60.829z"/>
										<path d="M102.432,61.924v8.354h-2.67v-8.354h-3.135v-2.16h8.969v2.16H102.432z"/>
										<path d="M115.557,70.277l-4.83-6.465v6.465h-2.506v-10.5h2.355l4.845,6.48v-6.48h2.489v10.5H115.557z"/>
										<path d="M123.896,68.344l-0.766,1.936h-2.744l4.529-10.5h2.744l4.426,10.5h-2.852l-0.75-1.936H123.896z M126.206,62.434
											l-1.53,3.885h3.03L126.206,62.434z"/>
										<path d="M141.896,70.277l-4.83-6.465v6.465h-2.506v-10.5h2.355l4.846,6.48v-6.48h2.488v10.5H141.896z"/>
										<path d="M158.516,65.014c0,3.061-2.431,5.385-5.686,5.385c-3.239,0-5.669-2.31-5.669-5.385c0-3.06,2.43-5.324,5.669-5.324
											C156.085,59.688,158.516,61.969,158.516,65.014z M149.891,65.027c0,1.771,1.365,3.136,2.971,3.136
											c1.619,0,2.91-1.364,2.91-3.136c0-1.77-1.291-3.104-2.91-3.104C151.241,61.924,149.891,63.259,149.891,65.027z"/>
										<path d="M169.602,60.829l-1.006,2.085c-1.109-0.646-2.505-1.096-3.359-1.096c-0.689,0-1.154,0.254-1.154,0.766
											c0,1.814,5.55,0.779,5.55,4.574c0,2.101-1.86,3.21-4.2,3.21c-1.755,0-3.555-0.66-4.8-1.681l1.035-2.055
											c1.08,0.944,2.7,1.574,3.795,1.574c0.84,0,1.365-0.314,1.365-0.915c0-1.858-5.55-0.749-5.55-4.47
											c0-1.936,1.664-3.164,4.185-3.164C166.977,59.659,168.521,60.124,169.602,60.829z"/>
										<path d="M177.445,61.924v8.354h-2.67v-8.354h-3.135v-2.16h8.969v2.16H177.445z"/>
									</g>
								</g>
							</g>
						</g>
					</g>
				</g>
			</g>
		</g>
	</g>
</g>
</svg>
